<?xml version="1.0" encoding="utf-8" standalone="no"?>
<!DOCTYPE svg PUBLIC "-//W3C//DTD SVG 1.1//EN"
  "http://www.w3.org/Graphics/SVG/1.1/DTD/svg11.dtd">
<svg xmlns:xlink="http://www.w3.org/1999/xlink" width="426.24pt" height="380.88pt" viewBox="0 0 426.24 380.88" xmlns="http://www.w3.org/2000/svg" version="1.1">
 <metadata>
  <rdf:RDF xmlns:dc="http://purl.org/dc/elements/1.1/" xmlns:cc="http://creativecommons.org/ns#" xmlns:rdf="http://www.w3.org/1999/02/22-rdf-syntax-ns#">
   <cc:Work>
    <dc:type rdf:resource="http://purl.org/dc/dcmitype/StillImage"/>
    <dc:date>2025-11-23T13:07:58.373328</dc:date>
    <dc:format>image/svg+xml</dc:format>
    <dc:creator>
     <cc:Agent>
      <dc:title>Matplotlib v3.10.7, https://matplotlib.org/</dc:title>
     </cc:Agent>
    </dc:creator>
   </cc:Work>
  </rdf:RDF>
 </metadata>
 <defs>
  <style type="text/css">*{stroke-linejoin: round; stroke-linecap: butt}</style>
 </defs>
 <g id="figure_1">
  <g id="patch_1">
   <path d="M 0 380.88 
L 426.24 380.88 
L 426.24 0 
L 0 0 
z
" style="fill: #ffffff"/>
  </g>
  <g id="axes_1">
   <g id="patch_2">
    <path d="M 53.28 179.0136 
L 383.616 179.0136 
L 383.616 45.7056 
L 53.28 45.7056 
z
" style="fill: #e5e5e5"/>
   </g>
   <g id="matplotlib.axis_1">
    <g id="xtick_1">
     <g id="line2d_1">
      <path d="M 74.667736 179.0136 
L 74.667736 45.7056 
" clip-path="url(#p5197a6d4bd)" style="fill: none; stroke: #ffffff; stroke-width: 0.8; stroke-linecap: square"/>
     </g>
     <g id="line2d_2">
      <defs>
       <path id="m6d1b338485" d="M 0 0 
L 0 3.5 
" style="stroke: #555555; stroke-width: 0.8"/>
      </defs>
      <g>
       <use xlink:href="#m6d1b338485" x="74.667736" y="179.0136" style="fill: #555555; stroke: #555555; stroke-width: 0.8"/>
      </g>
     </g>
    </g>
    <g id="xtick_2">
     <g id="line2d_3">
      <path d="M 116.141605 179.0136 
L 116.141605 45.7056 
" clip-path="url(#p5197a6d4bd)" style="fill: none; stroke: #ffffff; stroke-width: 0.8; stroke-linecap: square"/>
     </g>
     <g id="line2d_4">
      <g>
       <use xlink:href="#m6d1b338485" x="116.141605" y="179.0136" style="fill: #555555; stroke: #555555; stroke-width: 0.8"/>
      </g>
     </g>
    </g>
    <g id="xtick_3">
     <g id="line2d_5">
      <path d="M 157.615474 179.0136 
L 157.615474 45.7056 
" clip-path="url(#p5197a6d4bd)" style="fill: none; stroke: #ffffff; stroke-width: 0.8; stroke-linecap: square"/>
     </g>
     <g id="line2d_6">
      <g>
       <use xlink:href="#m6d1b338485" x="157.615474" y="179.0136" style="fill: #555555; stroke: #555555; stroke-width: 0.8"/>
      </g>
     </g>
    </g>
    <g id="xtick_4">
     <g id="line2d_7">
      <path d="M 199.089343 179.0136 
L 199.089343 45.7056 
" clip-path="url(#p5197a6d4bd)" style="fill: none; stroke: #ffffff; stroke-width: 0.8; stroke-linecap: square"/>
     </g>
     <g id="line2d_8">
      <g>
       <use xlink:href="#m6d1b338485" x="199.089343" y="179.0136" style="fill: #555555; stroke: #555555; stroke-width: 0.8"/>
      </g>
     </g>
    </g>
    <g id="xtick_5">
     <g id="line2d_9">
      <path d="M 240.563212 179.0136 
L 240.563212 45.7056 
" clip-path="url(#p5197a6d4bd)" style="fill: none; stroke: #ffffff; stroke-width: 0.8; stroke-linecap: square"/>
     </g>
     <g id="line2d_10">
      <g>
       <use xlink:href="#m6d1b338485" x="240.563212" y="179.0136" style="fill: #555555; stroke: #555555; stroke-width: 0.8"/>
      </g>
     </g>
    </g>
    <g id="xtick_6">
     <g id="line2d_11">
      <path d="M 282.037081 179.0136 
L 282.037081 45.7056 
" clip-path="url(#p5197a6d4bd)" style="fill: none; stroke: #ffffff; stroke-width: 0.8; stroke-linecap: square"/>
     </g>
     <g id="line2d_12">
      <g>
       <use xlink:href="#m6d1b338485" x="282.037081" y="179.0136" style="fill: #555555; stroke: #555555; stroke-width: 0.8"/>
      </g>
     </g>
    </g>
    <g id="xtick_7">
     <g id="line2d_13">
      <path d="M 323.51095 179.0136 
L 323.51095 45.7056 
" clip-path="url(#p5197a6d4bd)" style="fill: none; stroke: #ffffff; stroke-width: 0.8; stroke-linecap: square"/>
     </g>
     <g id="line2d_14">
      <g>
       <use xlink:href="#m6d1b338485" x="323.51095" y="179.0136" style="fill: #555555; stroke: #555555; stroke-width: 0.8"/>
      </g>
     </g>
    </g>
    <g id="xtick_8">
     <g id="line2d_15">
      <path d="M 364.984819 179.0136 
L 364.984819 45.7056 
" clip-path="url(#p5197a6d4bd)" style="fill: none; stroke: #ffffff; stroke-width: 0.8; stroke-linecap: square"/>
     </g>
     <g id="line2d_16">
      <g>
       <use xlink:href="#m6d1b338485" x="364.984819" y="179.0136" style="fill: #555555; stroke: #555555; stroke-width: 0.8"/>
      </g>
     </g>
    </g>
   </g>
   <g id="matplotlib.axis_2">
    <g id="ytick_1">
     <g id="line2d_17">
      <path d="M 53.28 160.033389 
L 383.616 160.033389 
" clip-path="url(#p5197a6d4bd)" style="fill: none; stroke: #ffffff; stroke-width: 0.8; stroke-linecap: square"/>
     </g>
     <g id="line2d_18">
      <defs>
       <path id="m9dd65abd0a" d="M 0 0 
L -3.5 0 
" style="stroke: #555555; stroke-width: 0.8"/>
      </defs>
      <g>
       <use xlink:href="#m9dd65abd0a" x="53.28" y="160.033389" style="fill: #555555; stroke: #555555; stroke-width: 0.8"/>
      </g>
     </g>
     <g id="text_1">
      <!-- −2 -->
      <g style="fill: #555555" transform="translate(31.537813 163.832608) scale(0.1 -0.1)">
       <defs>
        <path id="DejaVuSans-2212" d="M 678 2272 
L 4684 2272 
L 4684 1741 
L 678 1741 
L 678 2272 
z
" transform="scale(0.015625)"/>
        <path id="DejaVuSans-32" d="M 1228 531 
L 3431 531 
L 3431 0 
L 469 0 
L 469 531 
Q 828 903 1448 1529 
Q 2069 2156 2228 2338 
Q 2531 2678 2651 2914 
Q 2772 3150 2772 3378 
Q 2772 3750 2511 3984 
Q 2250 4219 1831 4219 
Q 1534 4219 1204 4116 
Q 875 4013 500 3803 
L 500 4441 
Q 881 4594 1212 4672 
Q 1544 4750 1819 4750 
Q 2544 4750 2975 4387 
Q 3406 4025 3406 3419 
Q 3406 3131 3298 2873 
Q 3191 2616 2906 2266 
Q 2828 2175 2409 1742 
Q 1991 1309 1228 531 
z
" transform="scale(0.015625)"/>
       </defs>
       <use xlink:href="#DejaVuSans-2212"/>
       <use xlink:href="#DejaVuSans-32" transform="translate(83.789062 0)"/>
      </g>
     </g>
    </g>
    <g id="ytick_2">
     <g id="line2d_19">
      <path d="M 53.28 119.486529 
L 383.616 119.486529 
" clip-path="url(#p5197a6d4bd)" style="fill: none; stroke: #ffffff; stroke-width: 0.8; stroke-linecap: square"/>
     </g>
     <g id="line2d_20">
      <g>
       <use xlink:href="#m9dd65abd0a" x="53.28" y="119.486529" style="fill: #555555; stroke: #555555; stroke-width: 0.8"/>
      </g>
     </g>
     <g id="text_2">
      <!-- −1 -->
      <g style="fill: #555555" transform="translate(31.537813 123.285747) scale(0.1 -0.1)">
       <defs>
        <path id="DejaVuSans-31" d="M 794 531 
L 1825 531 
L 1825 4091 
L 703 3866 
L 703 4441 
L 1819 4666 
L 2450 4666 
L 2450 531 
L 3481 531 
L 3481 0 
L 794 0 
L 794 531 
z
" transform="scale(0.015625)"/>
       </defs>
       <use xlink:href="#DejaVuSans-2212"/>
       <use xlink:href="#DejaVuSans-31" transform="translate(83.789062 0)"/>
      </g>
     </g>
    </g>
    <g id="ytick_3">
     <g id="line2d_21">
      <path d="M 53.28 78.939668 
L 383.616 78.939668 
" clip-path="url(#p5197a6d4bd)" style="fill: none; stroke: #ffffff; stroke-width: 0.8; stroke-linecap: square"/>
     </g>
     <g id="line2d_22">
      <g>
       <use xlink:href="#m9dd65abd0a" x="53.28" y="78.939668" style="fill: #555555; stroke: #555555; stroke-width: 0.8"/>
      </g>
     </g>
     <g id="text_3">
      <!-- 0 -->
      <g style="fill: #555555" transform="translate(39.9175 82.738887) scale(0.1 -0.1)">
       <defs>
        <path id="DejaVuSans-30" d="M 2034 4250 
Q 1547 4250 1301 3770 
Q 1056 3291 1056 2328 
Q 1056 1369 1301 889 
Q 1547 409 2034 409 
Q 2525 409 2770 889 
Q 3016 1369 3016 2328 
Q 3016 3291 2770 3770 
Q 2525 4250 2034 4250 
z
M 2034 4750 
Q 2819 4750 3233 4129 
Q 3647 3509 3647 2328 
Q 3647 1150 3233 529 
Q 2819 -91 2034 -91 
Q 1250 -91 836 529 
Q 422 1150 422 2328 
Q 422 3509 836 4129 
Q 1250 4750 2034 4750 
z
" transform="scale(0.015625)"/>
       </defs>
       <use xlink:href="#DejaVuSans-30"/>
      </g>
     </g>
    </g>
    <g id="text_4">
     <!-- $\psi$ (rad) -->
     <g style="fill: #555555" transform="translate(25.017812 132.8796) rotate(-90) scale(0.12 -0.12)">
      <defs>
       <path id="DejaVuSans-Oblique-3c8" d="M 1591 -78 
Q 891 38 616 341 
Q 278 713 425 1472 
L 819 3500 
L 1400 3500 
L 1009 1494 
Q 900 922 1119 684 
Q 1313 478 1691 434 
L 2284 3500 
L 2856 3500 
L 2263 438 
Q 2681 481 2928 688 
Q 3247 950 3353 1497 
L 3741 3500 
L 4322 3500 
L 3928 1475 
Q 3775 688 3300 344 
Q 2872 34 2163 -75 
L 1919 -1331 
L 1347 -1331 
L 1591 -78 
z
" transform="scale(0.015625)"/>
       <path id="DejaVuSans-20" transform="scale(0.015625)"/>
       <path id="DejaVuSans-28" d="M 1984 4856 
Q 1566 4138 1362 3434 
Q 1159 2731 1159 2009 
Q 1159 1288 1364 580 
Q 1569 -128 1984 -844 
L 1484 -844 
Q 1016 -109 783 600 
Q 550 1309 550 2009 
Q 550 2706 781 3412 
Q 1013 4119 1484 4856 
L 1984 4856 
z
" transform="scale(0.015625)"/>
       <path id="DejaVuSans-72" d="M 2631 2963 
Q 2534 3019 2420 3045 
Q 2306 3072 2169 3072 
Q 1681 3072 1420 2755 
Q 1159 2438 1159 1844 
L 1159 0 
L 581 0 
L 581 3500 
L 1159 3500 
L 1159 2956 
Q 1341 3275 1631 3429 
Q 1922 3584 2338 3584 
Q 2397 3584 2469 3576 
Q 2541 3569 2628 3553 
L 2631 2963 
z
" transform="scale(0.015625)"/>
       <path id="DejaVuSans-61" d="M 2194 1759 
Q 1497 1759 1228 1600 
Q 959 1441 959 1056 
Q 959 750 1161 570 
Q 1363 391 1709 391 
Q 2188 391 2477 730 
Q 2766 1069 2766 1631 
L 2766 1759 
L 2194 1759 
z
M 3341 1997 
L 3341 0 
L 2766 0 
L 2766 531 
Q 2569 213 2275 61 
Q 1981 -91 1556 -91 
Q 1019 -91 701 211 
Q 384 513 384 1019 
Q 384 1609 779 1909 
Q 1175 2209 1959 2209 
L 2766 2209 
L 2766 2266 
Q 2766 2663 2505 2880 
Q 2244 3097 1772 3097 
Q 1472 3097 1187 3025 
Q 903 2953 641 2809 
L 641 3341 
Q 956 3463 1253 3523 
Q 1550 3584 1831 3584 
Q 2591 3584 2966 3190 
Q 3341 2797 3341 1997 
z
" transform="scale(0.015625)"/>
       <path id="DejaVuSans-64" d="M 2906 2969 
L 2906 4863 
L 3481 4863 
L 3481 0 
L 2906 0 
L 2906 525 
Q 2725 213 2448 61 
Q 2172 -91 1784 -91 
Q 1150 -91 751 415 
Q 353 922 353 1747 
Q 353 2572 751 3078 
Q 1150 3584 1784 3584 
Q 2172 3584 2448 3432 
Q 2725 3281 2906 2969 
z
M 947 1747 
Q 947 1113 1208 752 
Q 1469 391 1925 391 
Q 2381 391 2643 752 
Q 2906 1113 2906 1747 
Q 2906 2381 2643 2742 
Q 2381 3103 1925 3103 
Q 1469 3103 1208 2742 
Q 947 2381 947 1747 
z
" transform="scale(0.015625)"/>
       <path id="DejaVuSans-29" d="M 513 4856 
L 1013 4856 
Q 1481 4119 1714 3412 
Q 1947 2706 1947 2009 
Q 1947 1309 1714 600 
Q 1481 -109 1013 -844 
L 513 -844 
Q 928 -128 1133 580 
Q 1338 1288 1338 2009 
Q 1338 2731 1133 3434 
Q 928 4138 513 4856 
z
" transform="scale(0.015625)"/>
      </defs>
      <use xlink:href="#DejaVuSans-Oblique-3c8" transform="translate(0 0.015625)"/>
      <use xlink:href="#DejaVuSans-20" transform="translate(65.966797 0.015625)"/>
      <use xlink:href="#DejaVuSans-28" transform="translate(97.753906 0.015625)"/>
      <use xlink:href="#DejaVuSans-72" transform="translate(136.767578 0.015625)"/>
      <use xlink:href="#DejaVuSans-61" transform="translate(177.880859 0.015625)"/>
      <use xlink:href="#DejaVuSans-64" transform="translate(239.160156 0.015625)"/>
      <use xlink:href="#DejaVuSans-29" transform="translate(302.636719 0.015625)"/>
     </g>
    </g>
   </g>
   <g id="line2d_23">
    <path d="M 74.667736 78.939668 
L 96.441518 78.939668 
L 97.478364 77.355684 
L 98.515211 76.573321 
L 99.552058 76.252686 
L 101.625751 75.987175 
L 102.662598 76.032614 
L 104.736291 76.456834 
L 105.773138 76.884649 
L 106.809985 77.509927 
L 108.883678 79.242596 
L 109.920525 80.101132 
L 110.957372 81.211881 
L 111.994219 82.82827 
L 114.067912 87.221837 
L 115.104759 89.85452 
L 116.141605 94.136592 
L 117.178452 109.717389 
L 118.215299 132.981249 
L 119.252146 150.904138 
L 120.288992 159.472972 
L 121.325839 160.744187 
L 125.473226 158.618612 
L 127.546919 157.805786 
L 129.620613 157.194999 
L 132.731153 156.576373 
L 135.841693 156.203973 
L 139.98908 155.932933 
L 146.21016 155.762518 
L 159.689168 155.684385 
L 161.762861 155.681949 
L 162.799708 158.10678 
L 163.836555 158.830224 
L 167.983942 159.293746 
L 170.057635 158.89155 
L 171.094482 158.550116 
L 172.131329 158.010509 
L 173.168175 157.296393 
L 174.205022 156.396006 
L 175.241869 155.290579 
L 176.278715 153.85944 
L 177.315562 152.035217 
L 178.352409 149.977704 
L 179.389256 147.637178 
L 180.426102 144.540577 
L 181.462949 138.99373 
L 182.499796 119.626458 
L 183.536642 97.172592 
L 184.573489 81.880971 
L 185.610336 75.826032 
L 186.647183 75.195805 
L 189.757723 76.392398 
L 192.868263 77.344009 
L 195.978803 77.977081 
L 199.089343 78.369081 
L 203.23673 78.659372 
L 209.457811 78.8446 
L 221.899971 78.929041 
L 292.405548 78.939668 
L 383.64806 78.939668 
L 383.64806 78.939668 
" clip-path="url(#p5197a6d4bd)" style="fill: none; stroke: #0000ff; stroke-width: 1.5; stroke-linecap: square"/>
   </g>
   <g id="line2d_24">
    <path d="M 74.667736 78.939668 
L 116.141605 78.939668 
L 117.178452 155.676502 
L 181.462949 155.676502 
L 182.499796 78.939668 
L 383.64806 78.939668 
L 383.64806 78.939668 
" clip-path="url(#p5197a6d4bd)" style="fill: none; stroke-dasharray: 5.55,2.4; stroke-dashoffset: 0; stroke: #000000; stroke-width: 1.5"/>
   </g>
   <g id="patch_3">
    <path d="M 53.28 179.0136 
L 53.28 45.7056 
" style="fill: none; stroke: #ffffff; stroke-linejoin: miter; stroke-linecap: square"/>
   </g>
   <g id="patch_4">
    <path d="M 383.616 179.0136 
L 383.616 45.7056 
" style="fill: none; stroke: #ffffff; stroke-linejoin: miter; stroke-linecap: square"/>
   </g>
   <g id="patch_5">
    <path d="M 53.28 179.0136 
L 383.616 179.0136 
" style="fill: none; stroke: #ffffff; stroke-linejoin: miter; stroke-linecap: square"/>
   </g>
   <g id="patch_6">
    <path d="M 53.28 45.7056 
L 383.616 45.7056 
" style="fill: none; stroke: #ffffff; stroke-linejoin: miter; stroke-linecap: square"/>
   </g>
   <g id="legend_1">
    <g id="patch_7">
     <path d="M 273.216 174.0136 
L 376.616 174.0136 
Q 378.616 174.0136 378.616 172.0136 
L 378.616 143.2136 
Q 378.616 141.2136 376.616 141.2136 
L 273.216 141.2136 
Q 271.216 141.2136 271.216 143.2136 
L 271.216 172.0136 
Q 271.216 174.0136 273.216 174.0136 
z
" style="fill: #e5e5e5; opacity: 0.8; stroke: #cccccc; stroke-width: 0.5; stroke-linejoin: miter"/>
    </g>
    <g id="line2d_25">
     <path d="M 275.216 149.3136 
L 285.216 149.3136 
L 295.216 149.3136 
" style="fill: none; stroke: #0000ff; stroke-width: 1.5; stroke-linecap: square"/>
    </g>
    <g id="text_5">
     <!-- $\psi$ (Atual) -->
     <g transform="translate(303.216 152.8136) scale(0.1 -0.1)">
      <defs>
       <path id="DejaVuSans-41" d="M 2188 4044 
L 1331 1722 
L 3047 1722 
L 2188 4044 
z
M 1831 4666 
L 2547 4666 
L 4325 0 
L 3669 0 
L 3244 1197 
L 1141 1197 
L 716 0 
L 50 0 
L 1831 4666 
z
" transform="scale(0.015625)"/>
       <path id="DejaVuSans-74" d="M 1172 4494 
L 1172 3500 
L 2356 3500 
L 2356 3053 
L 1172 3053 
L 1172 1153 
Q 1172 725 1289 603 
Q 1406 481 1766 481 
L 2356 481 
L 2356 0 
L 1766 0 
Q 1100 0 847 248 
Q 594 497 594 1153 
L 594 3053 
L 172 3053 
L 172 3500 
L 594 3500 
L 594 4494 
L 1172 4494 
z
" transform="scale(0.015625)"/>
       <path id="DejaVuSans-75" d="M 544 1381 
L 544 3500 
L 1119 3500 
L 1119 1403 
Q 1119 906 1312 657 
Q 1506 409 1894 409 
Q 2359 409 2629 706 
Q 2900 1003 2900 1516 
L 2900 3500 
L 3475 3500 
L 3475 0 
L 2900 0 
L 2900 538 
Q 2691 219 2414 64 
Q 2138 -91 1772 -91 
Q 1169 -91 856 284 
Q 544 659 544 1381 
z
M 1991 3584 
L 1991 3584 
z
" transform="scale(0.015625)"/>
       <path id="DejaVuSans-6c" d="M 603 4863 
L 1178 4863 
L 1178 0 
L 603 0 
L 603 4863 
z
" transform="scale(0.015625)"/>
      </defs>
      <use xlink:href="#DejaVuSans-Oblique-3c8" transform="translate(0 0.015625)"/>
      <use xlink:href="#DejaVuSans-20" transform="translate(65.966797 0.015625)"/>
      <use xlink:href="#DejaVuSans-28" transform="translate(97.753906 0.015625)"/>
      <use xlink:href="#DejaVuSans-41" transform="translate(136.767578 0.015625)"/>
      <use xlink:href="#DejaVuSans-74" transform="translate(205.175781 0.015625)"/>
      <use xlink:href="#DejaVuSans-75" transform="translate(244.384766 0.015625)"/>
      <use xlink:href="#DejaVuSans-61" transform="translate(307.763672 0.015625)"/>
      <use xlink:href="#DejaVuSans-6c" transform="translate(369.042969 0.015625)"/>
      <use xlink:href="#DejaVuSans-29" transform="translate(396.826172 0.015625)"/>
     </g>
    </g>
    <g id="line2d_26">
     <path d="M 275.216 164.4136 
L 285.216 164.4136 
L 295.216 164.4136 
" style="fill: none; stroke-dasharray: 5.55,2.4; stroke-dashoffset: 0; stroke: #000000; stroke-width: 1.5"/>
    </g>
    <g id="text_6">
     <!-- $\psi$ (Referência) -->
     <g transform="translate(303.216 167.9136) scale(0.1 -0.1)">
      <defs>
       <path id="DejaVuSans-52" d="M 2841 2188 
Q 3044 2119 3236 1894 
Q 3428 1669 3622 1275 
L 4263 0 
L 3584 0 
L 2988 1197 
Q 2756 1666 2539 1819 
Q 2322 1972 1947 1972 
L 1259 1972 
L 1259 0 
L 628 0 
L 628 4666 
L 2053 4666 
Q 2853 4666 3247 4331 
Q 3641 3997 3641 3322 
Q 3641 2881 3436 2590 
Q 3231 2300 2841 2188 
z
M 1259 4147 
L 1259 2491 
L 2053 2491 
Q 2509 2491 2742 2702 
Q 2975 2913 2975 3322 
Q 2975 3731 2742 3939 
Q 2509 4147 2053 4147 
L 1259 4147 
z
" transform="scale(0.015625)"/>
       <path id="DejaVuSans-65" d="M 3597 1894 
L 3597 1613 
L 953 1613 
Q 991 1019 1311 708 
Q 1631 397 2203 397 
Q 2534 397 2845 478 
Q 3156 559 3463 722 
L 3463 178 
Q 3153 47 2828 -22 
Q 2503 -91 2169 -91 
Q 1331 -91 842 396 
Q 353 884 353 1716 
Q 353 2575 817 3079 
Q 1281 3584 2069 3584 
Q 2775 3584 3186 3129 
Q 3597 2675 3597 1894 
z
M 3022 2063 
Q 3016 2534 2758 2815 
Q 2500 3097 2075 3097 
Q 1594 3097 1305 2825 
Q 1016 2553 972 2059 
L 3022 2063 
z
" transform="scale(0.015625)"/>
       <path id="DejaVuSans-66" d="M 2375 4863 
L 2375 4384 
L 1825 4384 
Q 1516 4384 1395 4259 
Q 1275 4134 1275 3809 
L 1275 3500 
L 2222 3500 
L 2222 3053 
L 1275 3053 
L 1275 0 
L 697 0 
L 697 3053 
L 147 3053 
L 147 3500 
L 697 3500 
L 697 3744 
Q 697 4328 969 4595 
Q 1241 4863 1831 4863 
L 2375 4863 
z
" transform="scale(0.015625)"/>
       <path id="DejaVuSans-ea" d="M 3597 1894 
L 3597 1613 
L 953 1613 
Q 991 1019 1311 708 
Q 1631 397 2203 397 
Q 2534 397 2845 478 
Q 3156 559 3463 722 
L 3463 178 
Q 3153 47 2828 -22 
Q 2503 -91 2169 -91 
Q 1331 -91 842 396 
Q 353 884 353 1716 
Q 353 2575 817 3079 
Q 1281 3584 2069 3584 
Q 2775 3584 3186 3129 
Q 3597 2675 3597 1894 
z
M 3022 2063 
Q 3016 2534 2758 2815 
Q 2500 3097 2075 3097 
Q 1594 3097 1305 2825 
Q 1016 2553 972 2059 
L 3022 2063 
z
M 1801 5119 
L 2263 5119 
L 3029 3944 
L 2595 3944 
L 2032 4709 
L 1470 3944 
L 1035 3944 
L 1801 5119 
z
" transform="scale(0.015625)"/>
       <path id="DejaVuSans-6e" d="M 3513 2113 
L 3513 0 
L 2938 0 
L 2938 2094 
Q 2938 2591 2744 2837 
Q 2550 3084 2163 3084 
Q 1697 3084 1428 2787 
Q 1159 2491 1159 1978 
L 1159 0 
L 581 0 
L 581 3500 
L 1159 3500 
L 1159 2956 
Q 1366 3272 1645 3428 
Q 1925 3584 2291 3584 
Q 2894 3584 3203 3211 
Q 3513 2838 3513 2113 
z
" transform="scale(0.015625)"/>
       <path id="DejaVuSans-63" d="M 3122 3366 
L 3122 2828 
Q 2878 2963 2633 3030 
Q 2388 3097 2138 3097 
Q 1578 3097 1268 2742 
Q 959 2388 959 1747 
Q 959 1106 1268 751 
Q 1578 397 2138 397 
Q 2388 397 2633 464 
Q 2878 531 3122 666 
L 3122 134 
Q 2881 22 2623 -34 
Q 2366 -91 2075 -91 
Q 1284 -91 818 406 
Q 353 903 353 1747 
Q 353 2603 823 3093 
Q 1294 3584 2113 3584 
Q 2378 3584 2631 3529 
Q 2884 3475 3122 3366 
z
" transform="scale(0.015625)"/>
       <path id="DejaVuSans-69" d="M 603 3500 
L 1178 3500 
L 1178 0 
L 603 0 
L 603 3500 
z
M 603 4863 
L 1178 4863 
L 1178 4134 
L 603 4134 
L 603 4863 
z
" transform="scale(0.015625)"/>
      </defs>
      <use xlink:href="#DejaVuSans-Oblique-3c8" transform="translate(0 0.015625)"/>
      <use xlink:href="#DejaVuSans-20" transform="translate(65.966797 0.015625)"/>
      <use xlink:href="#DejaVuSans-28" transform="translate(97.753906 0.015625)"/>
      <use xlink:href="#DejaVuSans-52" transform="translate(136.767578 0.015625)"/>
      <use xlink:href="#DejaVuSans-65" transform="translate(206.25 0.015625)"/>
      <use xlink:href="#DejaVuSans-66" transform="translate(267.773438 0.015625)"/>
      <use xlink:href="#DejaVuSans-65" transform="translate(302.978516 0.015625)"/>
      <use xlink:href="#DejaVuSans-72" transform="translate(364.501953 0.015625)"/>
      <use xlink:href="#DejaVuSans-ea" transform="translate(405.615234 0.015625)"/>
      <use xlink:href="#DejaVuSans-6e" transform="translate(467.138672 0.015625)"/>
      <use xlink:href="#DejaVuSans-63" transform="translate(530.517578 0.015625)"/>
      <use xlink:href="#DejaVuSans-69" transform="translate(585.498047 0.015625)"/>
      <use xlink:href="#DejaVuSans-61" transform="translate(613.28125 0.015625)"/>
      <use xlink:href="#DejaVuSans-29" transform="translate(674.560547 0.015625)"/>
     </g>
    </g>
   </g>
  </g>
  <g id="axes_2">
   <g id="patch_8">
    <path d="M 53.28 338.9832 
L 383.616 338.9832 
L 383.616 205.6752 
L 53.28 205.6752 
z
" style="fill: #e5e5e5"/>
   </g>
   <g id="matplotlib.axis_3">
    <g id="xtick_9">
     <g id="line2d_27">
      <path d="M 74.667736 338.9832 
L 74.667736 205.6752 
" clip-path="url(#pb2e6772b10)" style="fill: none; stroke: #ffffff; stroke-width: 0.8; stroke-linecap: square"/>
     </g>
     <g id="line2d_28">
      <g>
       <use xlink:href="#m6d1b338485" x="74.667736" y="338.9832" style="fill: #555555; stroke: #555555; stroke-width: 0.8"/>
      </g>
     </g>
     <g id="text_7">
      <!-- 0 -->
      <g style="fill: #555555" transform="translate(71.486486 353.581637) scale(0.1 -0.1)">
       <use xlink:href="#DejaVuSans-30"/>
      </g>
     </g>
    </g>
    <g id="xtick_10">
     <g id="line2d_29">
      <path d="M 116.141605 338.9832 
L 116.141605 205.6752 
" clip-path="url(#pb2e6772b10)" style="fill: none; stroke: #ffffff; stroke-width: 0.8; stroke-linecap: square"/>
     </g>
     <g id="line2d_30">
      <g>
       <use xlink:href="#m6d1b338485" x="116.141605" y="338.9832" style="fill: #555555; stroke: #555555; stroke-width: 0.8"/>
      </g>
     </g>
     <g id="text_8">
      <!-- 2 -->
      <g style="fill: #555555" transform="translate(112.960355 353.581637) scale(0.1 -0.1)">
       <use xlink:href="#DejaVuSans-32"/>
      </g>
     </g>
    </g>
    <g id="xtick_11">
     <g id="line2d_31">
      <path d="M 157.615474 338.9832 
L 157.615474 205.6752 
" clip-path="url(#pb2e6772b10)" style="fill: none; stroke: #ffffff; stroke-width: 0.8; stroke-linecap: square"/>
     </g>
     <g id="line2d_32">
      <g>
       <use xlink:href="#m6d1b338485" x="157.615474" y="338.9832" style="fill: #555555; stroke: #555555; stroke-width: 0.8"/>
      </g>
     </g>
     <g id="text_9">
      <!-- 4 -->
      <g style="fill: #555555" transform="translate(154.434224 353.581637) scale(0.1 -0.1)">
       <defs>
        <path id="DejaVuSans-34" d="M 2419 4116 
L 825 1625 
L 2419 1625 
L 2419 4116 
z
M 2253 4666 
L 3047 4666 
L 3047 1625 
L 3713 1625 
L 3713 1100 
L 3047 1100 
L 3047 0 
L 2419 0 
L 2419 1100 
L 313 1100 
L 313 1709 
L 2253 4666 
z
" transform="scale(0.015625)"/>
       </defs>
       <use xlink:href="#DejaVuSans-34"/>
      </g>
     </g>
    </g>
    <g id="xtick_12">
     <g id="line2d_33">
      <path d="M 199.089343 338.9832 
L 199.089343 205.6752 
" clip-path="url(#pb2e6772b10)" style="fill: none; stroke: #ffffff; stroke-width: 0.8; stroke-linecap: square"/>
     </g>
     <g id="line2d_34">
      <g>
       <use xlink:href="#m6d1b338485" x="199.089343" y="338.9832" style="fill: #555555; stroke: #555555; stroke-width: 0.8"/>
      </g>
     </g>
     <g id="text_10">
      <!-- 6 -->
      <g style="fill: #555555" transform="translate(195.908093 353.581637) scale(0.1 -0.1)">
       <defs>
        <path id="DejaVuSans-36" d="M 2113 2584 
Q 1688 2584 1439 2293 
Q 1191 2003 1191 1497 
Q 1191 994 1439 701 
Q 1688 409 2113 409 
Q 2538 409 2786 701 
Q 3034 994 3034 1497 
Q 3034 2003 2786 2293 
Q 2538 2584 2113 2584 
z
M 3366 4563 
L 3366 3988 
Q 3128 4100 2886 4159 
Q 2644 4219 2406 4219 
Q 1781 4219 1451 3797 
Q 1122 3375 1075 2522 
Q 1259 2794 1537 2939 
Q 1816 3084 2150 3084 
Q 2853 3084 3261 2657 
Q 3669 2231 3669 1497 
Q 3669 778 3244 343 
Q 2819 -91 2113 -91 
Q 1303 -91 875 529 
Q 447 1150 447 2328 
Q 447 3434 972 4092 
Q 1497 4750 2381 4750 
Q 2619 4750 2861 4703 
Q 3103 4656 3366 4563 
z
" transform="scale(0.015625)"/>
       </defs>
       <use xlink:href="#DejaVuSans-36"/>
      </g>
     </g>
    </g>
    <g id="xtick_13">
     <g id="line2d_35">
      <path d="M 240.563212 338.9832 
L 240.563212 205.6752 
" clip-path="url(#pb2e6772b10)" style="fill: none; stroke: #ffffff; stroke-width: 0.8; stroke-linecap: square"/>
     </g>
     <g id="line2d_36">
      <g>
       <use xlink:href="#m6d1b338485" x="240.563212" y="338.9832" style="fill: #555555; stroke: #555555; stroke-width: 0.8"/>
      </g>
     </g>
     <g id="text_11">
      <!-- 8 -->
      <g style="fill: #555555" transform="translate(237.381962 353.581637) scale(0.1 -0.1)">
       <defs>
        <path id="DejaVuSans-38" d="M 2034 2216 
Q 1584 2216 1326 1975 
Q 1069 1734 1069 1313 
Q 1069 891 1326 650 
Q 1584 409 2034 409 
Q 2484 409 2743 651 
Q 3003 894 3003 1313 
Q 3003 1734 2745 1975 
Q 2488 2216 2034 2216 
z
M 1403 2484 
Q 997 2584 770 2862 
Q 544 3141 544 3541 
Q 544 4100 942 4425 
Q 1341 4750 2034 4750 
Q 2731 4750 3128 4425 
Q 3525 4100 3525 3541 
Q 3525 3141 3298 2862 
Q 3072 2584 2669 2484 
Q 3125 2378 3379 2068 
Q 3634 1759 3634 1313 
Q 3634 634 3220 271 
Q 2806 -91 2034 -91 
Q 1263 -91 848 271 
Q 434 634 434 1313 
Q 434 1759 690 2068 
Q 947 2378 1403 2484 
z
M 1172 3481 
Q 1172 3119 1398 2916 
Q 1625 2713 2034 2713 
Q 2441 2713 2670 2916 
Q 2900 3119 2900 3481 
Q 2900 3844 2670 4047 
Q 2441 4250 2034 4250 
Q 1625 4250 1398 4047 
Q 1172 3844 1172 3481 
z
" transform="scale(0.015625)"/>
       </defs>
       <use xlink:href="#DejaVuSans-38"/>
      </g>
     </g>
    </g>
    <g id="xtick_14">
     <g id="line2d_37">
      <path d="M 282.037081 338.9832 
L 282.037081 205.6752 
" clip-path="url(#pb2e6772b10)" style="fill: none; stroke: #ffffff; stroke-width: 0.8; stroke-linecap: square"/>
     </g>
     <g id="line2d_38">
      <g>
       <use xlink:href="#m6d1b338485" x="282.037081" y="338.9832" style="fill: #555555; stroke: #555555; stroke-width: 0.8"/>
      </g>
     </g>
     <g id="text_12">
      <!-- 10 -->
      <g style="fill: #555555" transform="translate(275.674581 353.581637) scale(0.1 -0.1)">
       <use xlink:href="#DejaVuSans-31"/>
       <use xlink:href="#DejaVuSans-30" transform="translate(63.623047 0)"/>
      </g>
     </g>
    </g>
    <g id="xtick_15">
     <g id="line2d_39">
      <path d="M 323.51095 338.9832 
L 323.51095 205.6752 
" clip-path="url(#pb2e6772b10)" style="fill: none; stroke: #ffffff; stroke-width: 0.8; stroke-linecap: square"/>
     </g>
     <g id="line2d_40">
      <g>
       <use xlink:href="#m6d1b338485" x="323.51095" y="338.9832" style="fill: #555555; stroke: #555555; stroke-width: 0.8"/>
      </g>
     </g>
     <g id="text_13">
      <!-- 12 -->
      <g style="fill: #555555" transform="translate(317.14845 353.581637) scale(0.1 -0.1)">
       <use xlink:href="#DejaVuSans-31"/>
       <use xlink:href="#DejaVuSans-32" transform="translate(63.623047 0)"/>
      </g>
     </g>
    </g>
    <g id="xtick_16">
     <g id="line2d_41">
      <path d="M 364.984819 338.9832 
L 364.984819 205.6752 
" clip-path="url(#pb2e6772b10)" style="fill: none; stroke: #ffffff; stroke-width: 0.8; stroke-linecap: square"/>
     </g>
     <g id="line2d_42">
      <g>
       <use xlink:href="#m6d1b338485" x="364.984819" y="338.9832" style="fill: #555555; stroke: #555555; stroke-width: 0.8"/>
      </g>
     </g>
     <g id="text_14">
      <!-- 14 -->
      <g style="fill: #555555" transform="translate(358.622319 353.581637) scale(0.1 -0.1)">
       <use xlink:href="#DejaVuSans-31"/>
       <use xlink:href="#DejaVuSans-34" transform="translate(63.623047 0)"/>
      </g>
     </g>
    </g>
    <g id="text_15">
     <!-- Tempo (s) -->
     <g style="fill: #555555" transform="translate(189.072375 368.77945) scale(0.12 -0.12)">
      <defs>
       <path id="DejaVuSans-54" d="M -19 4666 
L 3928 4666 
L 3928 4134 
L 2272 4134 
L 2272 0 
L 1638 0 
L 1638 4134 
L -19 4134 
L -19 4666 
z
" transform="scale(0.015625)"/>
       <path id="DejaVuSans-6d" d="M 3328 2828 
Q 3544 3216 3844 3400 
Q 4144 3584 4550 3584 
Q 5097 3584 5394 3201 
Q 5691 2819 5691 2113 
L 5691 0 
L 5113 0 
L 5113 2094 
Q 5113 2597 4934 2840 
Q 4756 3084 4391 3084 
Q 3944 3084 3684 2787 
Q 3425 2491 3425 1978 
L 3425 0 
L 2847 0 
L 2847 2094 
Q 2847 2600 2669 2842 
Q 2491 3084 2119 3084 
Q 1678 3084 1418 2786 
Q 1159 2488 1159 1978 
L 1159 0 
L 581 0 
L 581 3500 
L 1159 3500 
L 1159 2956 
Q 1356 3278 1631 3431 
Q 1906 3584 2284 3584 
Q 2666 3584 2933 3390 
Q 3200 3197 3328 2828 
z
" transform="scale(0.015625)"/>
       <path id="DejaVuSans-70" d="M 1159 525 
L 1159 -1331 
L 581 -1331 
L 581 3500 
L 1159 3500 
L 1159 2969 
Q 1341 3281 1617 3432 
Q 1894 3584 2278 3584 
Q 2916 3584 3314 3078 
Q 3713 2572 3713 1747 
Q 3713 922 3314 415 
Q 2916 -91 2278 -91 
Q 1894 -91 1617 61 
Q 1341 213 1159 525 
z
M 3116 1747 
Q 3116 2381 2855 2742 
Q 2594 3103 2138 3103 
Q 1681 3103 1420 2742 
Q 1159 2381 1159 1747 
Q 1159 1113 1420 752 
Q 1681 391 2138 391 
Q 2594 391 2855 752 
Q 3116 1113 3116 1747 
z
" transform="scale(0.015625)"/>
       <path id="DejaVuSans-6f" d="M 1959 3097 
Q 1497 3097 1228 2736 
Q 959 2375 959 1747 
Q 959 1119 1226 758 
Q 1494 397 1959 397 
Q 2419 397 2687 759 
Q 2956 1122 2956 1747 
Q 2956 2369 2687 2733 
Q 2419 3097 1959 3097 
z
M 1959 3584 
Q 2709 3584 3137 3096 
Q 3566 2609 3566 1747 
Q 3566 888 3137 398 
Q 2709 -91 1959 -91 
Q 1206 -91 779 398 
Q 353 888 353 1747 
Q 353 2609 779 3096 
Q 1206 3584 1959 3584 
z
" transform="scale(0.015625)"/>
       <path id="DejaVuSans-73" d="M 2834 3397 
L 2834 2853 
Q 2591 2978 2328 3040 
Q 2066 3103 1784 3103 
Q 1356 3103 1142 2972 
Q 928 2841 928 2578 
Q 928 2378 1081 2264 
Q 1234 2150 1697 2047 
L 1894 2003 
Q 2506 1872 2764 1633 
Q 3022 1394 3022 966 
Q 3022 478 2636 193 
Q 2250 -91 1575 -91 
Q 1294 -91 989 -36 
Q 684 19 347 128 
L 347 722 
Q 666 556 975 473 
Q 1284 391 1588 391 
Q 1994 391 2212 530 
Q 2431 669 2431 922 
Q 2431 1156 2273 1281 
Q 2116 1406 1581 1522 
L 1381 1569 
Q 847 1681 609 1914 
Q 372 2147 372 2553 
Q 372 3047 722 3315 
Q 1072 3584 1716 3584 
Q 2034 3584 2315 3537 
Q 2597 3491 2834 3397 
z
" transform="scale(0.015625)"/>
      </defs>
      <use xlink:href="#DejaVuSans-54"/>
      <use xlink:href="#DejaVuSans-65" transform="translate(44.083984 0)"/>
      <use xlink:href="#DejaVuSans-6d" transform="translate(105.607422 0)"/>
      <use xlink:href="#DejaVuSans-70" transform="translate(203.019531 0)"/>
      <use xlink:href="#DejaVuSans-6f" transform="translate(266.496094 0)"/>
      <use xlink:href="#DejaVuSans-20" transform="translate(327.677734 0)"/>
      <use xlink:href="#DejaVuSans-28" transform="translate(359.464844 0)"/>
      <use xlink:href="#DejaVuSans-73" transform="translate(398.478516 0)"/>
      <use xlink:href="#DejaVuSans-29" transform="translate(450.578125 0)"/>
     </g>
    </g>
   </g>
   <g id="matplotlib.axis_4">
    <g id="ytick_4">
     <g id="line2d_43">
      <path d="M 53.28 332.923745 
L 383.616 332.923745 
" clip-path="url(#pb2e6772b10)" style="fill: none; stroke: #ffffff; stroke-width: 0.8; stroke-linecap: square"/>
     </g>
     <g id="line2d_44">
      <g>
       <use xlink:href="#m9dd65abd0a" x="53.28" y="332.923745" style="fill: #555555; stroke: #555555; stroke-width: 0.8"/>
      </g>
     </g>
     <g id="text_16">
      <!-- 0 -->
      <g style="fill: #555555" transform="translate(39.9175 336.722964) scale(0.1 -0.1)">
       <use xlink:href="#DejaVuSans-30"/>
      </g>
     </g>
    </g>
    <g id="ytick_5">
     <g id="line2d_45">
      <path d="M 53.28 297.720092 
L 383.616 297.720092 
" clip-path="url(#pb2e6772b10)" style="fill: none; stroke: #ffffff; stroke-width: 0.8; stroke-linecap: square"/>
     </g>
     <g id="line2d_46">
      <g>
       <use xlink:href="#m9dd65abd0a" x="53.28" y="297.720092" style="fill: #555555; stroke: #555555; stroke-width: 0.8"/>
      </g>
     </g>
     <g id="text_17">
      <!-- 1 -->
      <g style="fill: #555555" transform="translate(39.9175 301.519311) scale(0.1 -0.1)">
       <use xlink:href="#DejaVuSans-31"/>
      </g>
     </g>
    </g>
    <g id="ytick_6">
     <g id="line2d_47">
      <path d="M 53.28 262.516439 
L 383.616 262.516439 
" clip-path="url(#pb2e6772b10)" style="fill: none; stroke: #ffffff; stroke-width: 0.8; stroke-linecap: square"/>
     </g>
     <g id="line2d_48">
      <g>
       <use xlink:href="#m9dd65abd0a" x="53.28" y="262.516439" style="fill: #555555; stroke: #555555; stroke-width: 0.8"/>
      </g>
     </g>
     <g id="text_18">
      <!-- 2 -->
      <g style="fill: #555555" transform="translate(39.9175 266.315658) scale(0.1 -0.1)">
       <use xlink:href="#DejaVuSans-32"/>
      </g>
     </g>
    </g>
    <g id="ytick_7">
     <g id="line2d_49">
      <path d="M 53.28 227.312786 
L 383.616 227.312786 
" clip-path="url(#pb2e6772b10)" style="fill: none; stroke: #ffffff; stroke-width: 0.8; stroke-linecap: square"/>
     </g>
     <g id="line2d_50">
      <g>
       <use xlink:href="#m9dd65abd0a" x="53.28" y="227.312786" style="fill: #555555; stroke: #555555; stroke-width: 0.8"/>
      </g>
     </g>
     <g id="text_19">
      <!-- 3 -->
      <g style="fill: #555555" transform="translate(39.9175 231.112005) scale(0.1 -0.1)">
       <defs>
        <path id="DejaVuSans-33" d="M 2597 2516 
Q 3050 2419 3304 2112 
Q 3559 1806 3559 1356 
Q 3559 666 3084 287 
Q 2609 -91 1734 -91 
Q 1441 -91 1130 -33 
Q 819 25 488 141 
L 488 750 
Q 750 597 1062 519 
Q 1375 441 1716 441 
Q 2309 441 2620 675 
Q 2931 909 2931 1356 
Q 2931 1769 2642 2001 
Q 2353 2234 1838 2234 
L 1294 2234 
L 1294 2753 
L 1863 2753 
Q 2328 2753 2575 2939 
Q 2822 3125 2822 3475 
Q 2822 3834 2567 4026 
Q 2313 4219 1838 4219 
Q 1578 4219 1281 4162 
Q 984 4106 628 3988 
L 628 4550 
Q 988 4650 1302 4700 
Q 1616 4750 1894 4750 
Q 2613 4750 3031 4423 
Q 3450 4097 3450 3541 
Q 3450 3153 3228 2886 
Q 3006 2619 2597 2516 
z
" transform="scale(0.015625)"/>
       </defs>
       <use xlink:href="#DejaVuSans-33"/>
      </g>
     </g>
    </g>
    <g id="text_20">
     <!-- $v$ (m/s) -->
     <g style="fill: #555555" transform="translate(33.421875 293.5092) rotate(-90) scale(0.12 -0.12)">
      <defs>
       <path id="DejaVuSans-Oblique-76" d="M 459 3500 
L 1069 3500 
L 1581 525 
L 3256 3500 
L 3866 3500 
L 1875 0 
L 1100 0 
L 459 3500 
z
" transform="scale(0.015625)"/>
       <path id="DejaVuSans-2f" d="M 1625 4666 
L 2156 4666 
L 531 -594 
L 0 -594 
L 1625 4666 
z
" transform="scale(0.015625)"/>
      </defs>
      <use xlink:href="#DejaVuSans-Oblique-76" transform="translate(0 0.125)"/>
      <use xlink:href="#DejaVuSans-20" transform="translate(59.179688 0.125)"/>
      <use xlink:href="#DejaVuSans-28" transform="translate(90.966797 0.125)"/>
      <use xlink:href="#DejaVuSans-6d" transform="translate(129.980469 0.125)"/>
      <use xlink:href="#DejaVuSans-2f" transform="translate(227.392578 0.125)"/>
      <use xlink:href="#DejaVuSans-73" transform="translate(261.083984 0.125)"/>
      <use xlink:href="#DejaVuSans-29" transform="translate(313.183594 0.125)"/>
     </g>
    </g>
   </g>
   <g id="line2d_51">
    <path d="M 74.667736 332.043853 
L 75.705621 332.043853 
L 75.705621 330.283611 
L 76.743506 330.283611 
L 76.743506 328.523387 
L 77.78139 328.523387 
L 77.78139 326.763175 
L 78.819275 326.763175 
L 78.819275 325.002972 
L 79.85716 325.002972 
L 79.85716 323.242775 
L 80.895044 323.242775 
L 80.895044 321.482582 
L 81.932929 321.482582 
L 81.932929 319.722393 
L 82.970813 319.722393 
L 82.970813 317.962205 
L 84.008698 317.962205 
L 84.008698 316.202019 
L 85.046583 316.202019 
L 85.046583 314.441834 
L 86.084467 314.441834 
L 86.084467 312.681649 
L 87.122352 312.681649 
L 87.122352 310.921465 
L 88.160236 310.921465 
L 88.160236 309.161282 
L 89.198121 309.161282 
L 89.198121 307.401098 
L 90.236006 307.401098 
L 90.236006 305.640915 
L 91.27389 305.640915 
L 91.27389 303.880732 
L 92.311775 303.880732 
L 92.311775 302.12055 
L 93.349659 302.12055 
L 93.349659 300.360367 
L 94.387544 300.360367 
L 94.387544 298.600184 
L 95.425429 298.600184 
L 95.425429 296.840001 
L 96.463313 296.840001 
L 96.463313 295.13271 
L 97.501198 295.13271 
L 97.501198 293.543921 
L 98.539082 293.543921 
L 98.539082 293.898996 
L 99.576967 293.898996 
L 99.576967 290.847626 
L 100.614852 290.847626 
L 100.614852 289.350168 
L 101.652736 289.350168 
L 101.652736 288.468789 
L 102.690621 288.468789 
L 102.690621 288.286078 
L 103.728506 288.286078 
L 103.728506 285.974465 
L 104.76639 285.974465 
L 104.76639 284.477463 
L 105.804275 284.477463 
L 105.804275 284.96702 
L 106.842159 284.96702 
L 106.842159 286.920812 
L 107.880044 286.920812 
L 107.880044 288.214098 
L 108.917929 288.214098 
L 108.917929 286.453441 
L 109.955813 286.453441 
L 109.955813 286.079923 
L 110.993698 286.079923 
L 110.993698 287.896038 
L 112.031582 287.896038 
L 112.031582 289.964406 
L 113.069467 289.964406 
L 113.069467 289.725174 
L 114.107352 289.725174 
L 114.107352 287.563191 
L 115.145236 287.563191 
L 115.145236 279.134654 
L 116.183121 279.134654 
L 116.183121 230.287884 
L 117.221005 230.287884 
L 117.221005 211.734655 
L 118.25889 211.734655 
L 118.25889 239.557524 
L 119.296775 239.557524 
L 119.296775 241.022288 
L 120.334659 241.022288 
L 120.334659 274.806746 
L 121.372544 274.806746 
L 121.372544 281.775797 
L 122.410428 281.775797 
L 122.410428 273.036667 
L 123.448313 273.036667 
L 123.448313 270.621487 
L 124.486198 270.621487 
L 124.486198 268.549107 
L 125.524082 268.549107 
L 125.524082 267.080091 
L 126.561967 267.080091 
L 126.561967 265.967587 
L 127.599852 265.967587 
L 127.599852 265.124884 
L 128.637736 265.124884 
L 128.637736 264.484214 
L 129.675621 264.484214 
L 129.675621 263.997188 
L 130.713505 263.997188 
L 130.713505 263.627549 
L 131.75139 263.627549 
L 131.75139 263.347714 
L 132.789275 263.347714 
L 132.789275 263.136511 
L 133.827159 263.136511 
L 133.827159 262.977628 
L 134.865044 262.977628 
L 134.865044 262.8585 
L 136.940813 262.769472 
L 136.940813 262.703148 
L 140.054467 262.617397 
L 140.054467 262.590443 
L 162.887928 262.555442 
L 162.887928 265.007075 
L 163.925813 265.007075 
L 163.925813 263.885807 
L 164.963697 263.885807 
L 164.963697 262.858304 
L 166.001582 262.858304 
L 166.001582 263.249271 
L 167.039467 263.249271 
L 167.039467 264.196081 
L 168.077351 264.196081 
L 168.077351 264.708442 
L 169.115236 264.708442 
L 169.115236 264.420206 
L 170.15312 264.420206 
L 170.15312 265.644142 
L 171.191005 265.644142 
L 171.191005 267.372471 
L 172.22889 267.372471 
L 172.22889 269.797557 
L 173.266774 269.797557 
L 173.266774 271.790149 
L 174.304659 271.790149 
L 174.304659 272.814915 
L 175.342543 272.814915 
L 175.342543 276.043339 
L 176.380428 276.043339 
L 176.380428 280.630857 
L 177.418313 280.630857 
L 177.418313 282.651504 
L 178.456197 282.651504 
L 178.456197 283.94869 
L 179.494082 283.94869 
L 179.494082 282.604253 
L 180.531967 282.604253 
L 180.531967 268.706167 
L 181.569851 268.706167 
L 181.569851 219.34114 
L 182.607736 219.34114 
L 182.607736 215.954184 
L 183.64562 215.954184 
L 183.64562 242.037984 
L 184.683505 242.037984 
L 184.683505 247.413617 
L 185.72139 247.413617 
L 185.72139 281.19167 
L 187.797159 281.128567 
L 187.797159 274.267985 
L 188.835043 274.267985 
L 188.835043 271.115642 
L 189.872928 271.115642 
L 189.872928 268.753014 
L 190.910813 268.753014 
L 190.910813 267.071207 
L 191.948697 267.071207 
L 191.948697 265.850509 
L 192.986582 265.850509 
L 192.986582 264.960294 
L 194.024466 264.960294 
L 194.024466 264.308622 
L 195.062351 264.308622 
L 195.062351 263.830565 
L 196.100236 263.830565 
L 196.100236 263.479515 
L 197.13812 263.479515 
L 197.13812 263.221674 
L 198.176005 263.221674 
L 198.176005 263.032355 
L 199.213889 263.032355 
L 199.213889 262.893445 
L 201.289659 262.791619 
L 201.289659 262.717058 
L 204.403313 262.622694 
L 204.403313 262.593634 
L 259.411197 262.663767 
L 259.411197 262.722741 
L 261.486966 262.80485 
L 261.486966 262.921145 
L 262.524851 262.921145 
L 262.524851 263.086716 
L 263.562735 263.086716 
L 263.562735 263.322649 
L 264.60062 263.322649 
L 264.60062 263.658708 
L 265.638504 263.658708 
L 265.638504 264.137094 
L 266.676389 264.137094 
L 266.676389 264.81774 
L 267.714274 264.81774 
L 267.714274 265.785822 
L 268.752158 265.785822 
L 268.752158 267.162419 
L 269.790043 267.162419 
L 269.790043 269.119651 
L 270.827927 269.119651 
L 270.827927 271.902205 
L 271.865812 271.902205 
L 271.865812 275.857925 
L 272.903697 275.857925 
L 272.903697 281.481292 
L 273.941581 281.481292 
L 273.941581 289.475238 
L 274.979466 289.475238 
L 274.979466 300.839015 
L 276.01735 300.839015 
L 276.01735 310.353279 
L 277.055235 310.353279 
L 277.055235 317.046225 
L 278.09312 317.046225 
L 278.09312 321.754475 
L 279.131004 321.754475 
L 279.131004 325.066561 
L 280.168889 325.066561 
L 280.168889 327.396496 
L 281.206774 327.396496 
L 281.206774 329.035522 
L 282.244658 329.035522 
L 282.244658 330.188519 
L 283.282543 330.188519 
L 283.282543 330.999611 
L 284.320427 330.999611 
L 284.320427 331.570186 
L 285.358312 331.570186 
L 285.358312 331.971565 
L 286.396197 331.971565 
L 286.396197 332.253923 
L 287.434081 332.253923 
L 287.434081 332.452545 
L 288.471966 332.452545 
L 288.471966 332.592273 
L 290.547735 332.690566 
L 290.547735 332.759713 
L 294.699273 332.866675 
L 294.699273 332.883561 
L 427.24 332.923669 
L 427.24 332.923669 
" clip-path="url(#pb2e6772b10)" style="fill: none; stroke: #0000ff; stroke-width: 1.5; stroke-linecap: square"/>
   </g>
   <g id="line2d_52">
    <path d="M 74.667736 332.923745 
L 116.141605 262.516439 
L 383.64806 262.516439 
L 383.64806 262.516439 
" clip-path="url(#pb2e6772b10)" style="fill: none; stroke-dasharray: 5.55,2.4; stroke-dashoffset: 0; stroke: #000000; stroke-width: 1.5"/>
   </g>
   <g id="patch_9">
    <path d="M 53.28 338.9832 
L 53.28 205.6752 
" style="fill: none; stroke: #ffffff; stroke-linejoin: miter; stroke-linecap: square"/>
   </g>
   <g id="patch_10">
    <path d="M 383.616 338.9832 
L 383.616 205.6752 
" style="fill: none; stroke: #ffffff; stroke-linejoin: miter; stroke-linecap: square"/>
   </g>
   <g id="patch_11">
    <path d="M 53.28 338.9832 
L 383.616 338.9832 
" style="fill: none; stroke: #ffffff; stroke-linejoin: miter; stroke-linecap: square"/>
   </g>
   <g id="patch_12">
    <path d="M 53.28 205.6752 
L 383.616 205.6752 
" style="fill: none; stroke: #ffffff; stroke-linejoin: miter; stroke-linecap: square"/>
   </g>
   <g id="legend_2">
    <g id="patch_13">
     <path d="M 273.916 243.03145 
L 376.616 243.03145 
Q 378.616 243.03145 378.616 241.03145 
L 378.616 212.6752 
Q 378.616 210.6752 376.616 210.6752 
L 273.916 210.6752 
Q 271.916 210.6752 271.916 212.6752 
L 271.916 241.03145 
Q 271.916 243.03145 273.916 243.03145 
z
" style="fill: #e5e5e5; opacity: 0.8; stroke: #cccccc; stroke-width: 0.5; stroke-linejoin: miter"/>
    </g>
    <g id="line2d_53">
     <path d="M 275.916 218.773637 
L 285.916 218.773637 
L 285.916 218.773637 
L 295.916 218.773637 
L 295.916 218.773637 
" style="fill: none; stroke: #0000ff; stroke-width: 1.5; stroke-linecap: square"/>
    </g>
    <g id="text_21">
     <!-- $v$ (Atual) -->
     <g transform="translate(303.916 222.273637) scale(0.1 -0.1)">
      <use xlink:href="#DejaVuSans-Oblique-76" transform="translate(0 0.015625)"/>
      <use xlink:href="#DejaVuSans-20" transform="translate(59.179688 0.015625)"/>
      <use xlink:href="#DejaVuSans-28" transform="translate(90.966797 0.015625)"/>
      <use xlink:href="#DejaVuSans-41" transform="translate(129.980469 0.015625)"/>
      <use xlink:href="#DejaVuSans-74" transform="translate(198.388672 0.015625)"/>
      <use xlink:href="#DejaVuSans-75" transform="translate(237.597656 0.015625)"/>
      <use xlink:href="#DejaVuSans-61" transform="translate(300.976562 0.015625)"/>
      <use xlink:href="#DejaVuSans-6c" transform="translate(362.255859 0.015625)"/>
      <use xlink:href="#DejaVuSans-29" transform="translate(390.039062 0.015625)"/>
     </g>
    </g>
    <g id="line2d_54">
     <path d="M 275.916 233.451762 
L 285.916 233.451762 
L 295.916 233.451762 
" style="fill: none; stroke-dasharray: 5.55,2.4; stroke-dashoffset: 0; stroke: #000000; stroke-width: 1.5"/>
    </g>
    <g id="text_22">
     <!-- $v$ (Referência) -->
     <g transform="translate(303.916 236.951762) scale(0.1 -0.1)">
      <use xlink:href="#DejaVuSans-Oblique-76" transform="translate(0 0.015625)"/>
      <use xlink:href="#DejaVuSans-20" transform="translate(59.179688 0.015625)"/>
      <use xlink:href="#DejaVuSans-28" transform="translate(90.966797 0.015625)"/>
      <use xlink:href="#DejaVuSans-52" transform="translate(129.980469 0.015625)"/>
      <use xlink:href="#DejaVuSans-65" transform="translate(199.462891 0.015625)"/>
      <use xlink:href="#DejaVuSans-66" transform="translate(260.986328 0.015625)"/>
      <use xlink:href="#DejaVuSans-65" transform="translate(296.191406 0.015625)"/>
      <use xlink:href="#DejaVuSans-72" transform="translate(357.714844 0.015625)"/>
      <use xlink:href="#DejaVuSans-ea" transform="translate(398.828125 0.015625)"/>
      <use xlink:href="#DejaVuSans-6e" transform="translate(460.351562 0.015625)"/>
      <use xlink:href="#DejaVuSans-63" transform="translate(523.730469 0.015625)"/>
      <use xlink:href="#DejaVuSans-69" transform="translate(578.710938 0.015625)"/>
      <use xlink:href="#DejaVuSans-61" transform="translate(606.494141 0.015625)"/>
      <use xlink:href="#DejaVuSans-29" transform="translate(667.773438 0.015625)"/>
     </g>
    </g>
   </g>
  </g>
 </g>
 <defs>
  <clipPath id="p5197a6d4bd">
   <rect x="53.28" y="45.7056" width="330.336" height="133.308"/>
  </clipPath>
  <clipPath id="pb2e6772b10">
   <rect x="53.28" y="205.6752" width="330.336" height="133.308"/>
  </clipPath>
 </defs>
</svg>
