<?xml version="1.0" encoding="utf-8" standalone="no"?>
<!DOCTYPE svg PUBLIC "-//W3C//DTD SVG 1.1//EN"
  "http://www.w3.org/Graphics/SVG/1.1/DTD/svg11.dtd">
<svg xmlns:xlink="http://www.w3.org/1999/xlink" width="426.24pt" height="380.88pt" viewBox="0 0 426.24 380.88" xmlns="http://www.w3.org/2000/svg" version="1.1">
 <metadata>
  <rdf:RDF xmlns:dc="http://purl.org/dc/elements/1.1/" xmlns:cc="http://creativecommons.org/ns#" xmlns:rdf="http://www.w3.org/1999/02/22-rdf-syntax-ns#">
   <cc:Work>
    <dc:type rdf:resource="http://purl.org/dc/dcmitype/StillImage"/>
    <dc:date>2025-11-23T13:07:44.324818</dc:date>
    <dc:format>image/svg+xml</dc:format>
    <dc:creator>
     <cc:Agent>
      <dc:title>Matplotlib v3.10.7, https://matplotlib.org/</dc:title>
     </cc:Agent>
    </dc:creator>
   </cc:Work>
  </rdf:RDF>
 </metadata>
 <defs>
  <style type="text/css">*{stroke-linejoin: round; stroke-linecap: butt}</style>
 </defs>
 <g id="figure_1">
  <g id="patch_1">
   <path d="M 0 380.88 
L 426.24 380.88 
L 426.24 0 
L 0 0 
z
" style="fill: #ffffff"/>
  </g>
  <g id="axes_1">
   <g id="patch_2">
    <path d="M 53.28 179.0136 
L 383.616 179.0136 
L 383.616 45.7056 
L 53.28 45.7056 
z
" style="fill: #e5e5e5"/>
   </g>
   <g id="matplotlib.axis_1">
    <g id="xtick_1">
     <g id="line2d_1">
      <path d="M 68.038095 179.0136 
L 68.038095 45.7056 
" clip-path="url(#p5dbc0a564b)" style="fill: none; stroke: #ffffff; stroke-width: 0.8; stroke-linecap: square"/>
     </g>
     <g id="line2d_2">
      <defs>
       <path id="m8369651404" d="M 0 0 
L 0 3.5 
" style="stroke: #555555; stroke-width: 0.8"/>
      </defs>
      <g>
       <use xlink:href="#m8369651404" x="68.038095" y="179.0136" style="fill: #555555; stroke: #555555; stroke-width: 0.8"/>
      </g>
     </g>
    </g>
    <g id="xtick_2">
     <g id="line2d_3">
      <path d="M 108.809426 179.0136 
L 108.809426 45.7056 
" clip-path="url(#p5dbc0a564b)" style="fill: none; stroke: #ffffff; stroke-width: 0.8; stroke-linecap: square"/>
     </g>
     <g id="line2d_4">
      <g>
       <use xlink:href="#m8369651404" x="108.809426" y="179.0136" style="fill: #555555; stroke: #555555; stroke-width: 0.8"/>
      </g>
     </g>
    </g>
    <g id="xtick_3">
     <g id="line2d_5">
      <path d="M 149.580757 179.0136 
L 149.580757 45.7056 
" clip-path="url(#p5dbc0a564b)" style="fill: none; stroke: #ffffff; stroke-width: 0.8; stroke-linecap: square"/>
     </g>
     <g id="line2d_6">
      <g>
       <use xlink:href="#m8369651404" x="149.580757" y="179.0136" style="fill: #555555; stroke: #555555; stroke-width: 0.8"/>
      </g>
     </g>
    </g>
    <g id="xtick_4">
     <g id="line2d_7">
      <path d="M 190.352088 179.0136 
L 190.352088 45.7056 
" clip-path="url(#p5dbc0a564b)" style="fill: none; stroke: #ffffff; stroke-width: 0.8; stroke-linecap: square"/>
     </g>
     <g id="line2d_8">
      <g>
       <use xlink:href="#m8369651404" x="190.352088" y="179.0136" style="fill: #555555; stroke: #555555; stroke-width: 0.8"/>
      </g>
     </g>
    </g>
    <g id="xtick_5">
     <g id="line2d_9">
      <path d="M 231.123419 179.0136 
L 231.123419 45.7056 
" clip-path="url(#p5dbc0a564b)" style="fill: none; stroke: #ffffff; stroke-width: 0.8; stroke-linecap: square"/>
     </g>
     <g id="line2d_10">
      <g>
       <use xlink:href="#m8369651404" x="231.123419" y="179.0136" style="fill: #555555; stroke: #555555; stroke-width: 0.8"/>
      </g>
     </g>
    </g>
    <g id="xtick_6">
     <g id="line2d_11">
      <path d="M 271.89475 179.0136 
L 271.89475 45.7056 
" clip-path="url(#p5dbc0a564b)" style="fill: none; stroke: #ffffff; stroke-width: 0.8; stroke-linecap: square"/>
     </g>
     <g id="line2d_12">
      <g>
       <use xlink:href="#m8369651404" x="271.89475" y="179.0136" style="fill: #555555; stroke: #555555; stroke-width: 0.8"/>
      </g>
     </g>
    </g>
    <g id="xtick_7">
     <g id="line2d_13">
      <path d="M 312.666081 179.0136 
L 312.666081 45.7056 
" clip-path="url(#p5dbc0a564b)" style="fill: none; stroke: #ffffff; stroke-width: 0.8; stroke-linecap: square"/>
     </g>
     <g id="line2d_14">
      <g>
       <use xlink:href="#m8369651404" x="312.666081" y="179.0136" style="fill: #555555; stroke: #555555; stroke-width: 0.8"/>
      </g>
     </g>
    </g>
    <g id="xtick_8">
     <g id="line2d_15">
      <path d="M 353.437412 179.0136 
L 353.437412 45.7056 
" clip-path="url(#p5dbc0a564b)" style="fill: none; stroke: #ffffff; stroke-width: 0.8; stroke-linecap: square"/>
     </g>
     <g id="line2d_16">
      <g>
       <use xlink:href="#m8369651404" x="353.437412" y="179.0136" style="fill: #555555; stroke: #555555; stroke-width: 0.8"/>
      </g>
     </g>
    </g>
   </g>
   <g id="matplotlib.axis_2">
    <g id="ytick_1">
     <g id="line2d_17">
      <path d="M 53.28 166.524712 
L 383.616 166.524712 
" clip-path="url(#p5dbc0a564b)" style="fill: none; stroke: #ffffff; stroke-width: 0.8; stroke-linecap: square"/>
     </g>
     <g id="line2d_18">
      <defs>
       <path id="m7538d1a02f" d="M 0 0 
L -3.5 0 
" style="stroke: #555555; stroke-width: 0.8"/>
      </defs>
      <g>
       <use xlink:href="#m7538d1a02f" x="53.28" y="166.524712" style="fill: #555555; stroke: #555555; stroke-width: 0.8"/>
      </g>
     </g>
     <g id="text_1">
      <!-- 0.0 -->
      <g style="fill: #555555" transform="translate(30.376875 170.32393) scale(0.1 -0.1)">
       <defs>
        <path id="DejaVuSans-30" d="M 2034 4250 
Q 1547 4250 1301 3770 
Q 1056 3291 1056 2328 
Q 1056 1369 1301 889 
Q 1547 409 2034 409 
Q 2525 409 2770 889 
Q 3016 1369 3016 2328 
Q 3016 3291 2770 3770 
Q 2525 4250 2034 4250 
z
M 2034 4750 
Q 2819 4750 3233 4129 
Q 3647 3509 3647 2328 
Q 3647 1150 3233 529 
Q 2819 -91 2034 -91 
Q 1250 -91 836 529 
Q 422 1150 422 2328 
Q 422 3509 836 4129 
Q 1250 4750 2034 4750 
z
" transform="scale(0.015625)"/>
        <path id="DejaVuSans-2e" d="M 684 794 
L 1344 794 
L 1344 0 
L 684 0 
L 684 794 
z
" transform="scale(0.015625)"/>
       </defs>
       <use xlink:href="#DejaVuSans-30"/>
       <use xlink:href="#DejaVuSans-2e" transform="translate(63.623047 0)"/>
       <use xlink:href="#DejaVuSans-30" transform="translate(95.410156 0)"/>
      </g>
     </g>
    </g>
    <g id="ytick_2">
     <g id="line2d_19">
      <path d="M 53.28 133.173812 
L 383.616 133.173812 
" clip-path="url(#p5dbc0a564b)" style="fill: none; stroke: #ffffff; stroke-width: 0.8; stroke-linecap: square"/>
     </g>
     <g id="line2d_20">
      <g>
       <use xlink:href="#m7538d1a02f" x="53.28" y="133.173812" style="fill: #555555; stroke: #555555; stroke-width: 0.8"/>
      </g>
     </g>
     <g id="text_2">
      <!-- 0.2 -->
      <g style="fill: #555555" transform="translate(30.376875 136.973031) scale(0.1 -0.1)">
       <defs>
        <path id="DejaVuSans-32" d="M 1228 531 
L 3431 531 
L 3431 0 
L 469 0 
L 469 531 
Q 828 903 1448 1529 
Q 2069 2156 2228 2338 
Q 2531 2678 2651 2914 
Q 2772 3150 2772 3378 
Q 2772 3750 2511 3984 
Q 2250 4219 1831 4219 
Q 1534 4219 1204 4116 
Q 875 4013 500 3803 
L 500 4441 
Q 881 4594 1212 4672 
Q 1544 4750 1819 4750 
Q 2544 4750 2975 4387 
Q 3406 4025 3406 3419 
Q 3406 3131 3298 2873 
Q 3191 2616 2906 2266 
Q 2828 2175 2409 1742 
Q 1991 1309 1228 531 
z
" transform="scale(0.015625)"/>
       </defs>
       <use xlink:href="#DejaVuSans-30"/>
       <use xlink:href="#DejaVuSans-2e" transform="translate(63.623047 0)"/>
       <use xlink:href="#DejaVuSans-32" transform="translate(95.410156 0)"/>
      </g>
     </g>
    </g>
    <g id="ytick_3">
     <g id="line2d_21">
      <path d="M 53.28 99.822913 
L 383.616 99.822913 
" clip-path="url(#p5dbc0a564b)" style="fill: none; stroke: #ffffff; stroke-width: 0.8; stroke-linecap: square"/>
     </g>
     <g id="line2d_22">
      <g>
       <use xlink:href="#m7538d1a02f" x="53.28" y="99.822913" style="fill: #555555; stroke: #555555; stroke-width: 0.8"/>
      </g>
     </g>
     <g id="text_3">
      <!-- 0.4 -->
      <g style="fill: #555555" transform="translate(30.376875 103.622132) scale(0.1 -0.1)">
       <defs>
        <path id="DejaVuSans-34" d="M 2419 4116 
L 825 1625 
L 2419 1625 
L 2419 4116 
z
M 2253 4666 
L 3047 4666 
L 3047 1625 
L 3713 1625 
L 3713 1100 
L 3047 1100 
L 3047 0 
L 2419 0 
L 2419 1100 
L 313 1100 
L 313 1709 
L 2253 4666 
z
" transform="scale(0.015625)"/>
       </defs>
       <use xlink:href="#DejaVuSans-30"/>
       <use xlink:href="#DejaVuSans-2e" transform="translate(63.623047 0)"/>
       <use xlink:href="#DejaVuSans-34" transform="translate(95.410156 0)"/>
      </g>
     </g>
    </g>
    <g id="ytick_4">
     <g id="line2d_23">
      <path d="M 53.28 66.472014 
L 383.616 66.472014 
" clip-path="url(#p5dbc0a564b)" style="fill: none; stroke: #ffffff; stroke-width: 0.8; stroke-linecap: square"/>
     </g>
     <g id="line2d_24">
      <g>
       <use xlink:href="#m7538d1a02f" x="53.28" y="66.472014" style="fill: #555555; stroke: #555555; stroke-width: 0.8"/>
      </g>
     </g>
     <g id="text_4">
      <!-- 0.6 -->
      <g style="fill: #555555" transform="translate(30.376875 70.271232) scale(0.1 -0.1)">
       <defs>
        <path id="DejaVuSans-36" d="M 2113 2584 
Q 1688 2584 1439 2293 
Q 1191 2003 1191 1497 
Q 1191 994 1439 701 
Q 1688 409 2113 409 
Q 2538 409 2786 701 
Q 3034 994 3034 1497 
Q 3034 2003 2786 2293 
Q 2538 2584 2113 2584 
z
M 3366 4563 
L 3366 3988 
Q 3128 4100 2886 4159 
Q 2644 4219 2406 4219 
Q 1781 4219 1451 3797 
Q 1122 3375 1075 2522 
Q 1259 2794 1537 2939 
Q 1816 3084 2150 3084 
Q 2853 3084 3261 2657 
Q 3669 2231 3669 1497 
Q 3669 778 3244 343 
Q 2819 -91 2113 -91 
Q 1303 -91 875 529 
Q 447 1150 447 2328 
Q 447 3434 972 4092 
Q 1497 4750 2381 4750 
Q 2619 4750 2861 4703 
Q 3103 4656 3366 4563 
z
" transform="scale(0.015625)"/>
       </defs>
       <use xlink:href="#DejaVuSans-30"/>
       <use xlink:href="#DejaVuSans-2e" transform="translate(63.623047 0)"/>
       <use xlink:href="#DejaVuSans-36" transform="translate(95.410156 0)"/>
      </g>
     </g>
    </g>
    <g id="text_5">
     <!-- pwm (%) -->
     <g style="fill: #555555" transform="translate(23.88125 139.2096) rotate(-90) scale(0.12 -0.12)">
      <defs>
       <path id="DejaVuSans-70" d="M 1159 525 
L 1159 -1331 
L 581 -1331 
L 581 3500 
L 1159 3500 
L 1159 2969 
Q 1341 3281 1617 3432 
Q 1894 3584 2278 3584 
Q 2916 3584 3314 3078 
Q 3713 2572 3713 1747 
Q 3713 922 3314 415 
Q 2916 -91 2278 -91 
Q 1894 -91 1617 61 
Q 1341 213 1159 525 
z
M 3116 1747 
Q 3116 2381 2855 2742 
Q 2594 3103 2138 3103 
Q 1681 3103 1420 2742 
Q 1159 2381 1159 1747 
Q 1159 1113 1420 752 
Q 1681 391 2138 391 
Q 2594 391 2855 752 
Q 3116 1113 3116 1747 
z
" transform="scale(0.015625)"/>
       <path id="DejaVuSans-77" d="M 269 3500 
L 844 3500 
L 1563 769 
L 2278 3500 
L 2956 3500 
L 3675 769 
L 4391 3500 
L 4966 3500 
L 4050 0 
L 3372 0 
L 2619 2869 
L 1863 0 
L 1184 0 
L 269 3500 
z
" transform="scale(0.015625)"/>
       <path id="DejaVuSans-6d" d="M 3328 2828 
Q 3544 3216 3844 3400 
Q 4144 3584 4550 3584 
Q 5097 3584 5394 3201 
Q 5691 2819 5691 2113 
L 5691 0 
L 5113 0 
L 5113 2094 
Q 5113 2597 4934 2840 
Q 4756 3084 4391 3084 
Q 3944 3084 3684 2787 
Q 3425 2491 3425 1978 
L 3425 0 
L 2847 0 
L 2847 2094 
Q 2847 2600 2669 2842 
Q 2491 3084 2119 3084 
Q 1678 3084 1418 2786 
Q 1159 2488 1159 1978 
L 1159 0 
L 581 0 
L 581 3500 
L 1159 3500 
L 1159 2956 
Q 1356 3278 1631 3431 
Q 1906 3584 2284 3584 
Q 2666 3584 2933 3390 
Q 3200 3197 3328 2828 
z
" transform="scale(0.015625)"/>
       <path id="DejaVuSans-20" transform="scale(0.015625)"/>
       <path id="DejaVuSans-28" d="M 1984 4856 
Q 1566 4138 1362 3434 
Q 1159 2731 1159 2009 
Q 1159 1288 1364 580 
Q 1569 -128 1984 -844 
L 1484 -844 
Q 1016 -109 783 600 
Q 550 1309 550 2009 
Q 550 2706 781 3412 
Q 1013 4119 1484 4856 
L 1984 4856 
z
" transform="scale(0.015625)"/>
       <path id="DejaVuSans-25" d="M 4653 2053 
Q 4381 2053 4226 1822 
Q 4072 1591 4072 1178 
Q 4072 772 4226 539 
Q 4381 306 4653 306 
Q 4919 306 5073 539 
Q 5228 772 5228 1178 
Q 5228 1588 5073 1820 
Q 4919 2053 4653 2053 
z
M 4653 2450 
Q 5147 2450 5437 2106 
Q 5728 1763 5728 1178 
Q 5728 594 5436 251 
Q 5144 -91 4653 -91 
Q 4153 -91 3862 251 
Q 3572 594 3572 1178 
Q 3572 1766 3864 2108 
Q 4156 2450 4653 2450 
z
M 1428 4353 
Q 1159 4353 1004 4120 
Q 850 3888 850 3481 
Q 850 3069 1003 2837 
Q 1156 2606 1428 2606 
Q 1700 2606 1854 2837 
Q 2009 3069 2009 3481 
Q 2009 3884 1853 4118 
Q 1697 4353 1428 4353 
z
M 4250 4750 
L 4750 4750 
L 1831 -91 
L 1331 -91 
L 4250 4750 
z
M 1428 4750 
Q 1922 4750 2215 4408 
Q 2509 4066 2509 3481 
Q 2509 2891 2217 2550 
Q 1925 2209 1428 2209 
Q 931 2209 642 2551 
Q 353 2894 353 3481 
Q 353 4063 643 4406 
Q 934 4750 1428 4750 
z
" transform="scale(0.015625)"/>
       <path id="DejaVuSans-29" d="M 513 4856 
L 1013 4856 
Q 1481 4119 1714 3412 
Q 1947 2706 1947 2009 
Q 1947 1309 1714 600 
Q 1481 -109 1013 -844 
L 513 -844 
Q 928 -128 1133 580 
Q 1338 1288 1338 2009 
Q 1338 2731 1133 3434 
Q 928 4138 513 4856 
z
" transform="scale(0.015625)"/>
      </defs>
      <use xlink:href="#DejaVuSans-70"/>
      <use xlink:href="#DejaVuSans-77" transform="translate(63.476562 0)"/>
      <use xlink:href="#DejaVuSans-6d" transform="translate(145.263672 0)"/>
      <use xlink:href="#DejaVuSans-20" transform="translate(242.675781 0)"/>
      <use xlink:href="#DejaVuSans-28" transform="translate(274.462891 0)"/>
      <use xlink:href="#DejaVuSans-25" transform="translate(313.476562 0)"/>
      <use xlink:href="#DejaVuSans-29" transform="translate(408.496094 0)"/>
     </g>
    </g>
   </g>
   <g id="line2d_25">
    <path d="M 68.038095 165.691128 
L 69.058398 165.691128 
L 69.058398 164.023527 
L 70.078702 164.023527 
L 70.078702 162.355943 
L 71.099006 162.355943 
L 71.099006 160.68837 
L 72.119309 160.68837 
L 72.119309 159.020805 
L 73.139613 159.020805 
L 73.139613 157.353247 
L 74.159916 157.353247 
L 74.159916 155.685692 
L 75.18022 155.685692 
L 75.18022 154.01814 
L 76.200523 154.01814 
L 76.200523 152.350591 
L 77.220827 152.350591 
L 77.220827 150.683042 
L 78.241131 150.683042 
L 78.241131 149.015495 
L 79.261434 149.015495 
L 79.261434 147.347948 
L 80.281738 147.347948 
L 80.281738 145.680402 
L 81.302041 145.680402 
L 81.302041 144.012857 
L 82.322345 144.012857 
L 82.322345 142.345311 
L 83.342648 142.345311 
L 83.342648 140.677766 
L 84.362952 140.677766 
L 84.362952 139.01022 
L 85.383256 139.01022 
L 85.383256 137.342675 
L 86.403559 137.342675 
L 86.403559 135.67513 
L 87.423863 135.67513 
L 87.423863 134.007585 
L 88.444166 134.007585 
L 88.444166 132.34004 
L 89.46447 132.34004 
L 89.46447 130.722603 
L 90.484774 130.722603 
L 90.484774 129.217431 
L 91.505077 129.217431 
L 91.505077 129.553818 
L 92.525381 129.553818 
L 92.525381 126.663041 
L 93.545684 126.663041 
L 93.545684 125.244394 
L 94.565988 125.244394 
L 94.565988 124.409401 
L 95.586291 124.409401 
L 95.586291 124.236306 
L 96.606595 124.236306 
L 96.606595 122.046352 
L 97.626899 122.046352 
L 97.626899 120.628137 
L 98.647202 120.628137 
L 98.647202 121.091929 
L 99.667506 121.091929 
L 99.667506 122.942894 
L 100.687809 122.942894 
L 100.687809 124.168115 
L 101.708113 124.168115 
L 101.708113 122.50012 
L 102.728416 122.50012 
L 102.728416 122.146261 
L 103.74872 122.146261 
L 103.74872 123.866794 
L 104.769024 123.866794 
L 104.769024 125.826304 
L 105.789327 125.826304 
L 105.789327 125.599663 
L 106.809631 125.599663 
L 106.809631 123.551464 
L 107.829934 123.551464 
L 107.829934 115.566518 
L 108.850238 115.566518 
L 108.850238 69.290533 
L 109.870542 69.290533 
L 109.870542 51.713752 
L 110.890845 51.713752 
L 110.890845 78.072316 
L 111.911149 78.072316 
L 111.911149 79.45999 
L 112.931452 79.45999 
L 112.931452 111.466386 
L 113.951756 111.466386 
L 113.951756 118.068659 
L 114.972059 118.068659 
L 114.972059 109.789466 
L 115.992363 109.789466 
L 115.992363 107.501395 
L 117.012667 107.501395 
L 117.012667 105.538083 
L 118.03297 105.538083 
L 118.03297 104.146381 
L 119.053274 104.146381 
L 119.053274 103.092428 
L 120.073577 103.092428 
L 120.073577 102.294076 
L 121.093881 102.294076 
L 121.093881 101.687125 
L 122.114184 101.687125 
L 122.114184 101.22573 
L 123.134488 101.22573 
L 123.134488 100.875545 
L 124.154792 100.875545 
L 124.154792 100.610438 
L 125.175095 100.610438 
L 125.175095 100.410351 
L 126.195399 100.410351 
L 126.195399 100.259829 
L 127.215702 100.259829 
L 127.215702 100.146971 
L 129.25631 100.062629 
L 129.25631 99.999795 
L 133.337524 99.893022 
L 133.337524 99.874205 
L 154.763899 99.859863 
L 154.763899 102.182468 
L 155.784203 102.182468 
L 155.784203 101.120212 
L 156.804506 101.120212 
L 156.804506 100.146786 
L 157.82481 100.146786 
L 157.82481 100.517176 
L 158.845113 100.517176 
L 158.845113 101.414155 
L 159.865417 101.414155 
L 159.865417 101.899551 
L 160.88572 101.899551 
L 160.88572 101.626485 
L 161.906024 101.626485 
L 161.906024 102.786006 
L 162.926328 102.786006 
L 162.926328 104.423374 
L 163.946631 104.423374 
L 163.946631 106.720828 
L 164.966935 106.720828 
L 164.966935 108.608551 
L 165.987238 108.608551 
L 165.987238 109.579384 
L 167.007542 109.579384 
L 167.007542 112.637897 
L 168.027846 112.637897 
L 168.027846 116.983976 
L 169.048149 116.983976 
L 169.048149 118.898277 
L 170.068453 118.898277 
L 170.068453 120.127193 
L 171.088756 120.127193 
L 171.088756 118.853513 
L 172.10906 118.853513 
L 172.10906 105.686878 
L 173.129363 105.686878 
L 173.129363 58.919912 
L 174.149667 58.919912 
L 174.149667 55.71121 
L 175.169971 55.71121 
L 175.169971 80.42223 
L 176.190274 80.42223 
L 176.190274 85.514946 
L 177.210578 85.514946 
L 177.210578 117.515274 
L 179.251185 117.455492 
L 179.251185 110.955979 
L 180.271488 110.955979 
L 180.271488 107.969543 
L 181.291792 107.969543 
L 181.291792 105.731259 
L 182.312096 105.731259 
L 182.312096 104.137965 
L 183.332399 104.137965 
L 183.332399 102.981511 
L 184.352703 102.981511 
L 184.352703 102.138148 
L 185.373006 102.138148 
L 185.373006 101.520774 
L 186.39331 101.520774 
L 186.39331 101.067876 
L 187.413613 101.067876 
L 187.413613 100.735302 
L 188.433917 100.735302 
L 188.433917 100.491031 
L 189.454221 100.491031 
L 189.454221 100.311676 
L 190.474524 100.311676 
L 190.474524 100.180077 
L 192.515131 100.08361 
L 192.515131 100.012974 
L 195.576042 99.923576 
L 195.576042 99.896045 
L 249.652132 99.962487 
L 249.652132 100.018357 
L 251.692739 100.096145 
L 251.692739 100.206319 
L 252.713043 100.206319 
L 252.713043 100.363176 
L 253.733346 100.363176 
L 253.733346 100.586692 
L 254.75365 100.586692 
L 254.75365 100.905064 
L 255.773953 100.905064 
L 255.773953 101.358273 
L 256.794257 101.358273 
L 256.794257 102.003097 
L 257.81456 102.003097 
L 257.81456 102.92023 
L 258.834864 102.92023 
L 258.834864 104.224376 
L 259.855168 104.224376 
L 259.855168 106.0786 
L 260.875471 106.0786 
L 260.875471 108.71471 
L 261.895775 108.71471 
L 261.895775 112.462242 
L 262.916078 112.462242 
L 262.916078 117.789653 
L 263.936382 117.789653 
L 263.936382 125.362881 
L 264.956685 125.362881 
L 264.956685 136.128587 
L 265.976989 136.128587 
L 265.976989 145.14212 
L 266.997293 145.14212 
L 266.997293 151.482819 
L 268.017596 151.482819 
L 268.017596 155.943275 
L 269.0379 155.943275 
L 269.0379 159.081048 
L 270.058203 159.081048 
L 270.058203 161.288359 
L 271.078507 161.288359 
L 271.078507 162.841124 
L 272.098811 162.841124 
L 272.098811 163.933439 
L 273.119114 163.933439 
L 273.119114 164.701843 
L 274.139418 164.701843 
L 274.139418 165.242389 
L 275.159721 165.242389 
L 275.159721 165.622644 
L 276.180025 165.622644 
L 276.180025 165.890142 
L 277.200328 165.890142 
L 277.200328 166.07831 
L 278.220632 166.07831 
L 278.220632 166.210684 
L 280.261239 166.303805 
L 280.261239 166.369312 
L 284.342453 166.470645 
L 284.342453 166.486642 
L 427.24 166.524646 
L 427.24 166.524646 
" clip-path="url(#p5dbc0a564b)" style="fill: none; stroke: #ff0000; stroke-width: 1.5; stroke-linecap: square"/>
   </g>
   <g id="patch_3">
    <path d="M 53.28 179.0136 
L 53.28 45.7056 
" style="fill: none; stroke: #ffffff; stroke-linejoin: miter; stroke-linecap: square"/>
   </g>
   <g id="patch_4">
    <path d="M 383.616 179.0136 
L 383.616 45.7056 
" style="fill: none; stroke: #ffffff; stroke-linejoin: miter; stroke-linecap: square"/>
   </g>
   <g id="patch_5">
    <path d="M 53.28 179.0136 
L 383.616 179.0136 
" style="fill: none; stroke: #ffffff; stroke-linejoin: miter; stroke-linecap: square"/>
   </g>
   <g id="patch_6">
    <path d="M 53.28 45.7056 
L 383.616 45.7056 
" style="fill: none; stroke: #ffffff; stroke-linejoin: miter; stroke-linecap: square"/>
   </g>
   <g id="legend_1">
    <g id="patch_7">
     <path d="M 299.866 68.383725 
L 376.616 68.383725 
Q 378.616 68.383725 378.616 66.383725 
L 378.616 52.7056 
Q 378.616 50.7056 376.616 50.7056 
L 299.866 50.7056 
Q 297.866 50.7056 297.866 52.7056 
L 297.866 66.383725 
Q 297.866 68.383725 299.866 68.383725 
z
" style="fill: #e5e5e5; opacity: 0.8; stroke: #cccccc; stroke-width: 0.5; stroke-linejoin: miter"/>
    </g>
    <g id="line2d_26">
     <path d="M 301.866 58.804038 
L 311.866 58.804038 
L 311.866 58.804038 
L 321.866 58.804038 
L 321.866 58.804038 
" style="fill: none; stroke: #ff0000; stroke-width: 1.5; stroke-linecap: square"/>
    </g>
    <g id="text_6">
     <!-- pwm (%) -->
     <g transform="translate(329.866 62.304038) scale(0.1 -0.1)">
      <use xlink:href="#DejaVuSans-70"/>
      <use xlink:href="#DejaVuSans-77" transform="translate(63.476562 0)"/>
      <use xlink:href="#DejaVuSans-6d" transform="translate(145.263672 0)"/>
      <use xlink:href="#DejaVuSans-20" transform="translate(242.675781 0)"/>
      <use xlink:href="#DejaVuSans-28" transform="translate(274.462891 0)"/>
      <use xlink:href="#DejaVuSans-25" transform="translate(313.476562 0)"/>
      <use xlink:href="#DejaVuSans-29" transform="translate(408.496094 0)"/>
     </g>
    </g>
   </g>
  </g>
  <g id="axes_2">
   <g id="patch_8">
    <path d="M 53.28 338.9832 
L 383.616 338.9832 
L 383.616 205.6752 
L 53.28 205.6752 
z
" style="fill: #e5e5e5"/>
   </g>
   <g id="matplotlib.axis_3">
    <g id="xtick_9">
     <g id="line2d_27">
      <path d="M 68.038095 338.9832 
L 68.038095 205.6752 
" clip-path="url(#p57e6aaa030)" style="fill: none; stroke: #ffffff; stroke-width: 0.8; stroke-linecap: square"/>
     </g>
     <g id="line2d_28">
      <g>
       <use xlink:href="#m8369651404" x="68.038095" y="338.9832" style="fill: #555555; stroke: #555555; stroke-width: 0.8"/>
      </g>
     </g>
     <g id="text_7">
      <!-- 0 -->
      <g style="fill: #555555" transform="translate(64.856845 353.581637) scale(0.1 -0.1)">
       <use xlink:href="#DejaVuSans-30"/>
      </g>
     </g>
    </g>
    <g id="xtick_10">
     <g id="line2d_29">
      <path d="M 108.809426 338.9832 
L 108.809426 205.6752 
" clip-path="url(#p57e6aaa030)" style="fill: none; stroke: #ffffff; stroke-width: 0.8; stroke-linecap: square"/>
     </g>
     <g id="line2d_30">
      <g>
       <use xlink:href="#m8369651404" x="108.809426" y="338.9832" style="fill: #555555; stroke: #555555; stroke-width: 0.8"/>
      </g>
     </g>
     <g id="text_8">
      <!-- 2 -->
      <g style="fill: #555555" transform="translate(105.628176 353.581637) scale(0.1 -0.1)">
       <use xlink:href="#DejaVuSans-32"/>
      </g>
     </g>
    </g>
    <g id="xtick_11">
     <g id="line2d_31">
      <path d="M 149.580757 338.9832 
L 149.580757 205.6752 
" clip-path="url(#p57e6aaa030)" style="fill: none; stroke: #ffffff; stroke-width: 0.8; stroke-linecap: square"/>
     </g>
     <g id="line2d_32">
      <g>
       <use xlink:href="#m8369651404" x="149.580757" y="338.9832" style="fill: #555555; stroke: #555555; stroke-width: 0.8"/>
      </g>
     </g>
     <g id="text_9">
      <!-- 4 -->
      <g style="fill: #555555" transform="translate(146.399507 353.581637) scale(0.1 -0.1)">
       <use xlink:href="#DejaVuSans-34"/>
      </g>
     </g>
    </g>
    <g id="xtick_12">
     <g id="line2d_33">
      <path d="M 190.352088 338.9832 
L 190.352088 205.6752 
" clip-path="url(#p57e6aaa030)" style="fill: none; stroke: #ffffff; stroke-width: 0.8; stroke-linecap: square"/>
     </g>
     <g id="line2d_34">
      <g>
       <use xlink:href="#m8369651404" x="190.352088" y="338.9832" style="fill: #555555; stroke: #555555; stroke-width: 0.8"/>
      </g>
     </g>
     <g id="text_10">
      <!-- 6 -->
      <g style="fill: #555555" transform="translate(187.170838 353.581637) scale(0.1 -0.1)">
       <use xlink:href="#DejaVuSans-36"/>
      </g>
     </g>
    </g>
    <g id="xtick_13">
     <g id="line2d_35">
      <path d="M 231.123419 338.9832 
L 231.123419 205.6752 
" clip-path="url(#p57e6aaa030)" style="fill: none; stroke: #ffffff; stroke-width: 0.8; stroke-linecap: square"/>
     </g>
     <g id="line2d_36">
      <g>
       <use xlink:href="#m8369651404" x="231.123419" y="338.9832" style="fill: #555555; stroke: #555555; stroke-width: 0.8"/>
      </g>
     </g>
     <g id="text_11">
      <!-- 8 -->
      <g style="fill: #555555" transform="translate(227.942169 353.581637) scale(0.1 -0.1)">
       <defs>
        <path id="DejaVuSans-38" d="M 2034 2216 
Q 1584 2216 1326 1975 
Q 1069 1734 1069 1313 
Q 1069 891 1326 650 
Q 1584 409 2034 409 
Q 2484 409 2743 651 
Q 3003 894 3003 1313 
Q 3003 1734 2745 1975 
Q 2488 2216 2034 2216 
z
M 1403 2484 
Q 997 2584 770 2862 
Q 544 3141 544 3541 
Q 544 4100 942 4425 
Q 1341 4750 2034 4750 
Q 2731 4750 3128 4425 
Q 3525 4100 3525 3541 
Q 3525 3141 3298 2862 
Q 3072 2584 2669 2484 
Q 3125 2378 3379 2068 
Q 3634 1759 3634 1313 
Q 3634 634 3220 271 
Q 2806 -91 2034 -91 
Q 1263 -91 848 271 
Q 434 634 434 1313 
Q 434 1759 690 2068 
Q 947 2378 1403 2484 
z
M 1172 3481 
Q 1172 3119 1398 2916 
Q 1625 2713 2034 2713 
Q 2441 2713 2670 2916 
Q 2900 3119 2900 3481 
Q 2900 3844 2670 4047 
Q 2441 4250 2034 4250 
Q 1625 4250 1398 4047 
Q 1172 3844 1172 3481 
z
" transform="scale(0.015625)"/>
       </defs>
       <use xlink:href="#DejaVuSans-38"/>
      </g>
     </g>
    </g>
    <g id="xtick_14">
     <g id="line2d_37">
      <path d="M 271.89475 338.9832 
L 271.89475 205.6752 
" clip-path="url(#p57e6aaa030)" style="fill: none; stroke: #ffffff; stroke-width: 0.8; stroke-linecap: square"/>
     </g>
     <g id="line2d_38">
      <g>
       <use xlink:href="#m8369651404" x="271.89475" y="338.9832" style="fill: #555555; stroke: #555555; stroke-width: 0.8"/>
      </g>
     </g>
     <g id="text_12">
      <!-- 10 -->
      <g style="fill: #555555" transform="translate(265.53225 353.581637) scale(0.1 -0.1)">
       <defs>
        <path id="DejaVuSans-31" d="M 794 531 
L 1825 531 
L 1825 4091 
L 703 3866 
L 703 4441 
L 1819 4666 
L 2450 4666 
L 2450 531 
L 3481 531 
L 3481 0 
L 794 0 
L 794 531 
z
" transform="scale(0.015625)"/>
       </defs>
       <use xlink:href="#DejaVuSans-31"/>
       <use xlink:href="#DejaVuSans-30" transform="translate(63.623047 0)"/>
      </g>
     </g>
    </g>
    <g id="xtick_15">
     <g id="line2d_39">
      <path d="M 312.666081 338.9832 
L 312.666081 205.6752 
" clip-path="url(#p57e6aaa030)" style="fill: none; stroke: #ffffff; stroke-width: 0.8; stroke-linecap: square"/>
     </g>
     <g id="line2d_40">
      <g>
       <use xlink:href="#m8369651404" x="312.666081" y="338.9832" style="fill: #555555; stroke: #555555; stroke-width: 0.8"/>
      </g>
     </g>
     <g id="text_13">
      <!-- 12 -->
      <g style="fill: #555555" transform="translate(306.303581 353.581637) scale(0.1 -0.1)">
       <use xlink:href="#DejaVuSans-31"/>
       <use xlink:href="#DejaVuSans-32" transform="translate(63.623047 0)"/>
      </g>
     </g>
    </g>
    <g id="xtick_16">
     <g id="line2d_41">
      <path d="M 353.437412 338.9832 
L 353.437412 205.6752 
" clip-path="url(#p57e6aaa030)" style="fill: none; stroke: #ffffff; stroke-width: 0.8; stroke-linecap: square"/>
     </g>
     <g id="line2d_42">
      <g>
       <use xlink:href="#m8369651404" x="353.437412" y="338.9832" style="fill: #555555; stroke: #555555; stroke-width: 0.8"/>
      </g>
     </g>
     <g id="text_14">
      <!-- 14 -->
      <g style="fill: #555555" transform="translate(347.074912 353.581637) scale(0.1 -0.1)">
       <use xlink:href="#DejaVuSans-31"/>
       <use xlink:href="#DejaVuSans-34" transform="translate(63.623047 0)"/>
      </g>
     </g>
    </g>
    <g id="text_15">
     <!-- Tempo (s) -->
     <g style="fill: #555555" transform="translate(189.072375 368.77945) scale(0.12 -0.12)">
      <defs>
       <path id="DejaVuSans-54" d="M -19 4666 
L 3928 4666 
L 3928 4134 
L 2272 4134 
L 2272 0 
L 1638 0 
L 1638 4134 
L -19 4134 
L -19 4666 
z
" transform="scale(0.015625)"/>
       <path id="DejaVuSans-65" d="M 3597 1894 
L 3597 1613 
L 953 1613 
Q 991 1019 1311 708 
Q 1631 397 2203 397 
Q 2534 397 2845 478 
Q 3156 559 3463 722 
L 3463 178 
Q 3153 47 2828 -22 
Q 2503 -91 2169 -91 
Q 1331 -91 842 396 
Q 353 884 353 1716 
Q 353 2575 817 3079 
Q 1281 3584 2069 3584 
Q 2775 3584 3186 3129 
Q 3597 2675 3597 1894 
z
M 3022 2063 
Q 3016 2534 2758 2815 
Q 2500 3097 2075 3097 
Q 1594 3097 1305 2825 
Q 1016 2553 972 2059 
L 3022 2063 
z
" transform="scale(0.015625)"/>
       <path id="DejaVuSans-6f" d="M 1959 3097 
Q 1497 3097 1228 2736 
Q 959 2375 959 1747 
Q 959 1119 1226 758 
Q 1494 397 1959 397 
Q 2419 397 2687 759 
Q 2956 1122 2956 1747 
Q 2956 2369 2687 2733 
Q 2419 3097 1959 3097 
z
M 1959 3584 
Q 2709 3584 3137 3096 
Q 3566 2609 3566 1747 
Q 3566 888 3137 398 
Q 2709 -91 1959 -91 
Q 1206 -91 779 398 
Q 353 888 353 1747 
Q 353 2609 779 3096 
Q 1206 3584 1959 3584 
z
" transform="scale(0.015625)"/>
       <path id="DejaVuSans-73" d="M 2834 3397 
L 2834 2853 
Q 2591 2978 2328 3040 
Q 2066 3103 1784 3103 
Q 1356 3103 1142 2972 
Q 928 2841 928 2578 
Q 928 2378 1081 2264 
Q 1234 2150 1697 2047 
L 1894 2003 
Q 2506 1872 2764 1633 
Q 3022 1394 3022 966 
Q 3022 478 2636 193 
Q 2250 -91 1575 -91 
Q 1294 -91 989 -36 
Q 684 19 347 128 
L 347 722 
Q 666 556 975 473 
Q 1284 391 1588 391 
Q 1994 391 2212 530 
Q 2431 669 2431 922 
Q 2431 1156 2273 1281 
Q 2116 1406 1581 1522 
L 1381 1569 
Q 847 1681 609 1914 
Q 372 2147 372 2553 
Q 372 3047 722 3315 
Q 1072 3584 1716 3584 
Q 2034 3584 2315 3537 
Q 2597 3491 2834 3397 
z
" transform="scale(0.015625)"/>
      </defs>
      <use xlink:href="#DejaVuSans-54"/>
      <use xlink:href="#DejaVuSans-65" transform="translate(44.083984 0)"/>
      <use xlink:href="#DejaVuSans-6d" transform="translate(105.607422 0)"/>
      <use xlink:href="#DejaVuSans-70" transform="translate(203.019531 0)"/>
      <use xlink:href="#DejaVuSans-6f" transform="translate(266.496094 0)"/>
      <use xlink:href="#DejaVuSans-20" transform="translate(327.677734 0)"/>
      <use xlink:href="#DejaVuSans-28" transform="translate(359.464844 0)"/>
      <use xlink:href="#DejaVuSans-73" transform="translate(398.478516 0)"/>
      <use xlink:href="#DejaVuSans-29" transform="translate(450.578125 0)"/>
     </g>
    </g>
   </g>
   <g id="matplotlib.axis_4">
    <g id="ytick_5">
     <g id="line2d_43">
      <path d="M 53.28 310.904886 
L 383.616 310.904886 
" clip-path="url(#p57e6aaa030)" style="fill: none; stroke: #ffffff; stroke-width: 0.8; stroke-linecap: square"/>
     </g>
     <g id="line2d_44">
      <g>
       <use xlink:href="#m7538d1a02f" x="53.28" y="310.904886" style="fill: #555555; stroke: #555555; stroke-width: 0.8"/>
      </g>
     </g>
     <g id="text_16">
      <!-- −0.5 -->
      <g style="fill: #555555" transform="translate(21.997187 314.704104) scale(0.1 -0.1)">
       <defs>
        <path id="DejaVuSans-2212" d="M 678 2272 
L 4684 2272 
L 4684 1741 
L 678 1741 
L 678 2272 
z
" transform="scale(0.015625)"/>
        <path id="DejaVuSans-35" d="M 691 4666 
L 3169 4666 
L 3169 4134 
L 1269 4134 
L 1269 2991 
Q 1406 3038 1543 3061 
Q 1681 3084 1819 3084 
Q 2600 3084 3056 2656 
Q 3513 2228 3513 1497 
Q 3513 744 3044 326 
Q 2575 -91 1722 -91 
Q 1428 -91 1123 -41 
Q 819 9 494 109 
L 494 744 
Q 775 591 1075 516 
Q 1375 441 1709 441 
Q 2250 441 2565 725 
Q 2881 1009 2881 1497 
Q 2881 1984 2565 2268 
Q 2250 2553 1709 2553 
Q 1456 2553 1204 2497 
Q 953 2441 691 2322 
L 691 4666 
z
" transform="scale(0.015625)"/>
       </defs>
       <use xlink:href="#DejaVuSans-2212"/>
       <use xlink:href="#DejaVuSans-30" transform="translate(83.789062 0)"/>
       <use xlink:href="#DejaVuSans-2e" transform="translate(147.412109 0)"/>
       <use xlink:href="#DejaVuSans-35" transform="translate(179.199219 0)"/>
      </g>
     </g>
    </g>
    <g id="ytick_6">
     <g id="line2d_45">
      <path d="M 53.28 272.3292 
L 383.616 272.3292 
" clip-path="url(#p57e6aaa030)" style="fill: none; stroke: #ffffff; stroke-width: 0.8; stroke-linecap: square"/>
     </g>
     <g id="line2d_46">
      <g>
       <use xlink:href="#m7538d1a02f" x="53.28" y="272.3292" style="fill: #555555; stroke: #555555; stroke-width: 0.8"/>
      </g>
     </g>
     <g id="text_17">
      <!-- 0.0 -->
      <g style="fill: #555555" transform="translate(30.376875 276.128419) scale(0.1 -0.1)">
       <use xlink:href="#DejaVuSans-30"/>
       <use xlink:href="#DejaVuSans-2e" transform="translate(63.623047 0)"/>
       <use xlink:href="#DejaVuSans-30" transform="translate(95.410156 0)"/>
      </g>
     </g>
    </g>
    <g id="ytick_7">
     <g id="line2d_47">
      <path d="M 53.28 233.753514 
L 383.616 233.753514 
" clip-path="url(#p57e6aaa030)" style="fill: none; stroke: #ffffff; stroke-width: 0.8; stroke-linecap: square"/>
     </g>
     <g id="line2d_48">
      <g>
       <use xlink:href="#m7538d1a02f" x="53.28" y="233.753514" style="fill: #555555; stroke: #555555; stroke-width: 0.8"/>
      </g>
     </g>
     <g id="text_18">
      <!-- 0.5 -->
      <g style="fill: #555555" transform="translate(30.376875 237.552733) scale(0.1 -0.1)">
       <use xlink:href="#DejaVuSans-30"/>
       <use xlink:href="#DejaVuSans-2e" transform="translate(63.623047 0)"/>
       <use xlink:href="#DejaVuSans-35" transform="translate(95.410156 0)"/>
      </g>
     </g>
    </g>
    <g id="text_19">
     <!-- $\delta$ (rad) -->
     <g style="fill: #555555" transform="translate(15.501562 292.5492) rotate(-90) scale(0.12 -0.12)">
      <defs>
       <path id="DejaVuSans-Oblique-3b4" d="M 3472 4053 
Q 3197 4272 2450 4272 
Q 1659 4272 1588 3906 
Q 1531 3619 2328 3469 
Q 2953 3353 3253 3003 
Q 3616 2581 3447 1716 
Q 3284 888 2763 400 
Q 2238 -91 1488 -91 
Q 741 -91 406 400 
Q 72 888 241 1747 
Q 363 2384 891 2900 
Q 1097 3100 1353 3213 
Q 913 3459 1000 3900 
Q 1166 4750 2544 4750 
Q 3234 4750 3566 4531 
L 3472 4053 
z
M 1753 3056 
Q 1525 2966 1306 2738 
Q 969 2384 847 1747 
Q 722 1113 919 756 
Q 1119 397 1584 397 
Q 2044 397 2381 759 
Q 2722 1122 2838 1716 
Q 2956 2338 2731 2638 
Q 2491 2959 2103 2994 
Q 1906 3013 1753 3056 
z
" transform="scale(0.015625)"/>
       <path id="DejaVuSans-72" d="M 2631 2963 
Q 2534 3019 2420 3045 
Q 2306 3072 2169 3072 
Q 1681 3072 1420 2755 
Q 1159 2438 1159 1844 
L 1159 0 
L 581 0 
L 581 3500 
L 1159 3500 
L 1159 2956 
Q 1341 3275 1631 3429 
Q 1922 3584 2338 3584 
Q 2397 3584 2469 3576 
Q 2541 3569 2628 3553 
L 2631 2963 
z
" transform="scale(0.015625)"/>
       <path id="DejaVuSans-61" d="M 2194 1759 
Q 1497 1759 1228 1600 
Q 959 1441 959 1056 
Q 959 750 1161 570 
Q 1363 391 1709 391 
Q 2188 391 2477 730 
Q 2766 1069 2766 1631 
L 2766 1759 
L 2194 1759 
z
M 3341 1997 
L 3341 0 
L 2766 0 
L 2766 531 
Q 2569 213 2275 61 
Q 1981 -91 1556 -91 
Q 1019 -91 701 211 
Q 384 513 384 1019 
Q 384 1609 779 1909 
Q 1175 2209 1959 2209 
L 2766 2209 
L 2766 2266 
Q 2766 2663 2505 2880 
Q 2244 3097 1772 3097 
Q 1472 3097 1187 3025 
Q 903 2953 641 2809 
L 641 3341 
Q 956 3463 1253 3523 
Q 1550 3584 1831 3584 
Q 2591 3584 2966 3190 
Q 3341 2797 3341 1997 
z
" transform="scale(0.015625)"/>
       <path id="DejaVuSans-64" d="M 2906 2969 
L 2906 4863 
L 3481 4863 
L 3481 0 
L 2906 0 
L 2906 525 
Q 2725 213 2448 61 
Q 2172 -91 1784 -91 
Q 1150 -91 751 415 
Q 353 922 353 1747 
Q 353 2572 751 3078 
Q 1150 3584 1784 3584 
Q 2172 3584 2448 3432 
Q 2725 3281 2906 2969 
z
M 947 1747 
Q 947 1113 1208 752 
Q 1469 391 1925 391 
Q 2381 391 2643 752 
Q 2906 1113 2906 1747 
Q 2906 2381 2643 2742 
Q 2381 3103 1925 3103 
Q 1469 3103 1208 2742 
Q 947 2381 947 1747 
z
" transform="scale(0.015625)"/>
      </defs>
      <use xlink:href="#DejaVuSans-Oblique-3b4" transform="translate(0 0.015625)"/>
      <use xlink:href="#DejaVuSans-20" transform="translate(61.181641 0.015625)"/>
      <use xlink:href="#DejaVuSans-28" transform="translate(92.96875 0.015625)"/>
      <use xlink:href="#DejaVuSans-72" transform="translate(131.982422 0.015625)"/>
      <use xlink:href="#DejaVuSans-61" transform="translate(173.095703 0.015625)"/>
      <use xlink:href="#DejaVuSans-64" transform="translate(234.375 0.015625)"/>
      <use xlink:href="#DejaVuSans-29" transform="translate(297.851562 0.015625)"/>
     </g>
    </g>
   </g>
   <g id="line2d_49">
    <path d="M 68.038095 272.3292 
L 89.46447 272.3292 
L 89.46447 255.743855 
L 90.484774 255.743855 
L 90.484774 264.372808 
L 91.505077 264.372808 
L 91.505077 269.029066 
L 92.525381 269.029066 
L 92.525381 270.61973 
L 93.545684 270.61973 
L 93.545684 271.531243 
L 94.565988 271.531243 
L 94.565988 272.739999 
L 95.586291 272.739999 
L 95.586291 274.039595 
L 96.606595 274.039595 
L 96.606595 274.33381 
L 97.626899 274.33381 
L 97.626899 275.875825 
L 98.647202 275.875825 
L 98.647202 277.561377 
L 99.667506 277.561377 
L 99.667506 279.439726 
L 100.687809 279.439726 
L 100.687809 280.536523 
L 101.708113 280.536523 
L 101.708113 279.731605 
L 102.728416 279.731605 
L 102.728416 281.811085 
L 103.74872 281.811085 
L 103.74872 286.59198 
L 104.769024 286.59198 
L 104.769024 291.461178 
L 105.789327 291.461178 
L 105.789327 293.251375 
L 106.809631 293.251375 
L 106.809631 294.98133 
L 107.829934 294.98133 
L 107.829934 302.65897 
L 108.850238 302.65897 
L 108.850238 323.952127 
L 109.870542 323.952127 
L 109.870542 332.923745 
L 111.911149 332.923745 
L 111.911149 307.213504 
L 112.931452 307.213504 
L 112.931452 281.08251 
L 113.951756 281.08251 
L 113.951756 267.94342 
L 114.972059 267.94342 
L 114.972059 268.700417 
L 115.992363 268.700417 
L 115.992363 268.856317 
L 117.012667 268.856317 
L 117.012667 269.29036 
L 118.03297 269.29036 
L 118.03297 269.684796 
L 119.053274 269.684796 
L 119.053274 270.052329 
L 120.073577 270.052329 
L 120.073577 270.381834 
L 121.093881 270.381834 
L 121.093881 270.672195 
L 122.114184 270.672195 
L 122.114184 270.924824 
L 123.134488 270.924824 
L 123.134488 271.142613 
L 124.154792 271.142613 
L 124.154792 271.32908 
L 125.175095 271.32908 
L 125.175095 271.487889 
L 126.195399 271.487889 
L 126.195399 271.622594 
L 127.215702 271.622594 
L 127.215702 271.736489 
L 129.25631 271.832547 
L 129.25631 271.913398 
L 131.296917 271.981341 
L 131.296917 272.038362 
L 134.357827 272.126207 
L 134.357827 272.15972 
L 140.479649 272.260779 
L 140.479649 272.272176 
L 153.743595 272.322887 
L 153.743595 286.032615 
L 154.763899 286.032615 
L 154.763899 276.605898 
L 155.784203 276.605898 
L 155.784203 272.910395 
L 157.82481 272.838886 
L 157.82481 273.250501 
L 158.845113 273.250501 
L 158.845113 273.002299 
L 159.865417 273.002299 
L 159.865417 271.246592 
L 160.88572 271.246592 
L 160.88572 271.047773 
L 161.906024 271.047773 
L 161.906024 270.290059 
L 162.926328 270.290059 
L 162.926328 269.022797 
L 163.946631 269.022797 
L 163.946631 267.787873 
L 164.966935 267.787873 
L 164.966935 266.421417 
L 165.987238 266.421417 
L 165.987238 264.96045 
L 167.007542 264.96045 
L 167.007542 262.274346 
L 168.027846 262.274346 
L 168.027846 258.460135 
L 169.048149 258.460135 
L 169.048149 256.122849 
L 170.068453 256.122849 
L 170.068453 253.504679 
L 171.088756 253.504679 
L 171.088756 248.3949 
L 172.10906 248.3949 
L 172.10906 239.707998 
L 173.129363 239.707998 
L 173.129363 216.295012 
L 174.149667 216.295012 
L 174.149667 211.734655 
L 175.169971 211.734655 
L 175.169971 216.806082 
L 176.190274 216.806082 
L 176.190274 245.064979 
L 177.210578 245.064979 
L 177.210578 267.439518 
L 178.230881 267.439518 
L 178.230881 275.62894 
L 179.251185 275.62894 
L 179.251185 274.97891 
L 180.271488 274.97891 
L 180.271488 274.826745 
L 181.291792 274.826745 
L 181.291792 274.544382 
L 182.312096 274.544382 
L 182.312096 274.268198 
L 183.332399 274.268198 
L 183.332399 274.007027 
L 184.352703 274.007027 
L 184.352703 273.769558 
L 185.373006 273.769558 
L 185.373006 273.558498 
L 186.39331 273.558498 
L 186.39331 273.373777 
L 187.413613 273.373777 
L 187.413613 273.213842 
L 188.433917 273.213842 
L 188.433917 273.076446 
L 189.454221 273.076446 
L 189.454221 272.959094 
L 191.494828 272.859299 
L 191.494828 272.774719 
L 193.535435 272.703221 
L 193.535435 272.642908 
L 196.596346 272.549396 
L 196.596346 272.513508 
L 202.718167 272.404398 
L 202.718167 272.391984 
L 427.24 272.3292 
L 427.24 272.3292 
" clip-path="url(#p57e6aaa030)" style="fill: none; stroke: #ff0000; stroke-width: 1.5; stroke-linecap: square"/>
   </g>
   <g id="patch_9">
    <path d="M 53.28 338.9832 
L 53.28 205.6752 
" style="fill: none; stroke: #ffffff; stroke-linejoin: miter; stroke-linecap: square"/>
   </g>
   <g id="patch_10">
    <path d="M 383.616 338.9832 
L 383.616 205.6752 
" style="fill: none; stroke: #ffffff; stroke-linejoin: miter; stroke-linecap: square"/>
   </g>
   <g id="patch_11">
    <path d="M 53.28 338.9832 
L 383.616 338.9832 
" style="fill: none; stroke: #ffffff; stroke-linejoin: miter; stroke-linecap: square"/>
   </g>
   <g id="patch_12">
    <path d="M 53.28 205.6752 
L 383.616 205.6752 
" style="fill: none; stroke: #ffffff; stroke-linejoin: miter; stroke-linecap: square"/>
   </g>
   <g id="legend_2">
    <g id="patch_13">
     <path d="M 310.916 228.353325 
L 376.616 228.353325 
Q 378.616 228.353325 378.616 226.353325 
L 378.616 212.6752 
Q 378.616 210.6752 376.616 210.6752 
L 310.916 210.6752 
Q 308.916 210.6752 308.916 212.6752 
L 308.916 226.353325 
Q 308.916 228.353325 310.916 228.353325 
z
" style="fill: #e5e5e5; opacity: 0.8; stroke: #cccccc; stroke-width: 0.5; stroke-linejoin: miter"/>
    </g>
    <g id="line2d_50">
     <path d="M 312.916 218.773637 
L 322.916 218.773637 
L 322.916 218.773637 
L 332.916 218.773637 
L 332.916 218.773637 
" style="fill: none; stroke: #ff0000; stroke-width: 1.5; stroke-linecap: square"/>
    </g>
    <g id="text_20">
     <!-- $\delta$ (rad) -->
     <g transform="translate(340.916 222.273637) scale(0.1 -0.1)">
      <use xlink:href="#DejaVuSans-Oblique-3b4" transform="translate(0 0.015625)"/>
      <use xlink:href="#DejaVuSans-20" transform="translate(61.181641 0.015625)"/>
      <use xlink:href="#DejaVuSans-28" transform="translate(92.96875 0.015625)"/>
      <use xlink:href="#DejaVuSans-72" transform="translate(131.982422 0.015625)"/>
      <use xlink:href="#DejaVuSans-61" transform="translate(173.095703 0.015625)"/>
      <use xlink:href="#DejaVuSans-64" transform="translate(234.375 0.015625)"/>
      <use xlink:href="#DejaVuSans-29" transform="translate(297.851562 0.015625)"/>
     </g>
    </g>
   </g>
  </g>
 </g>
 <defs>
  <clipPath id="p5dbc0a564b">
   <rect x="53.28" y="45.7056" width="330.336" height="133.308"/>
  </clipPath>
  <clipPath id="p57e6aaa030">
   <rect x="53.28" y="205.6752" width="330.336" height="133.308"/>
  </clipPath>
 </defs>
</svg>
